<svg xmlns="http://www.w3.org/2000/svg" xmlns:xlink="http://www.w3.org/1999/xlink" width="237.002" height="239.893" viewBox="0 0 237.002 239.893">
  <defs>
    <clipPath id="clip-path">
      <path id="Path_27520" data-name="Path 27520" d="M565.368,398.276H396.446c-39.74-67.561-47.062-128.308,0-177.621H565.368Z" transform="translate(-363.837 -220.655)" fill="none"/>
    </clipPath>
  </defs>
  <g id="congrats-illustration" transform="translate(-241.352 -116.728)">
    <g id="Group_3945" data-name="Group 3945" transform="translate(368.215 118.385)">
      <path id="Path_27485" data-name="Path 27485" d="M744.2,380.845a.434.434,0,0,1-.4-.257c-1.324-2.954-2.452-5.844-1.732-8.715.549-2.19,2.077-3.894,3.555-5.542,1.451-1.619,2.822-3.148,3.343-5.093.652-2.437-.2-5.014-1.028-7.508-.128-.387-.256-.772-.377-1.154a74.686,74.686,0,0,1-2.62-14.022.434.434,0,0,1,.863-.1,73.984,73.984,0,0,0,2.585,13.861c.12.379.247.76.373,1.144.867,2.614,1.762,5.318,1.043,8.005-.574,2.146-2.08,3.824-3.535,5.448-1.472,1.641-2.862,3.192-3.359,5.173-.653,2.6.423,5.339,1.682,8.148a.434.434,0,0,1-.4.612Z" transform="translate(-723.766 -295.822)" fill="#5479f7"/>
      <path id="Path_27486" data-name="Path 27486" d="M790.7,410.989a.431.431,0,0,1-.219-.06,32.614,32.614,0,0,1-6.305-4.828c-2.466-2.412-6.211-7.331-3.6-13.167,1.228-2.742,3.5-4.682,5.91-6.592l.074-.058c2.193-1.734,4.461-3.527,5.755-6.071,1.984-3.9,1.071-5.833-.086-8.283A17.3,17.3,0,0,1,790.553,367a.434.434,0,0,1,.858-.136,16.353,16.353,0,0,0,1.61,4.692c1.208,2.56,2.251,4.771.074,9.048-1.381,2.713-3.724,4.566-5.991,6.358l-.073.058c-2.415,1.91-4.508,3.7-5.657,6.266-2.4,5.355,1.109,9.936,3.413,12.191a31.75,31.75,0,0,0,6.137,4.7.434.434,0,0,1-.22.809Z" transform="translate(-750.655 -316.019)" fill="#5479f7"/>
      <g id="Group_3943" data-name="Group 3943" transform="translate(0 0)">
        <path id="Path_27487" data-name="Path 27487" d="M713.283,208.935c2.532,11.3-4.139,22.72-11.9,24.734-7.243,1.878-18.54-4.883-21.072-16.182s.044-22.044,11.9-24.734C704.421,189.983,710.751,197.636,713.283,208.935Z" transform="translate(-679.422 -192.184)" fill="#a0e9be"/>
        <path id="Path_27488" data-name="Path 27488" d="M748.034,334.144l-1.132,2.776c1.387.353,2.9-.111,4.515-1.27l-2.313-2.081Z" transform="translate(-727.36 -292.624)" fill="#99b9ff"/>
        <path id="Path_27489" data-name="Path 27489" d="M750.875,199.548a4.88,4.88,0,0,1,2.448,3.043c.074.547-.043,1.045-.668.782a14.684,14.684,0,0,1-2.13-1.607c-.537-.356-4.917-1.71-3.326-2.674C748.305,198.421,749.858,198.93,750.875,199.548Z" transform="translate(-727.325 -196.866)" fill="#fff"/>
      </g>
      <g id="Group_3944" data-name="Group 3944" transform="translate(26.809 17.66)">
        <path id="Path_27490" data-name="Path 27490" d="M801.65,270.745c-.285,9.442-8.359,16.86-15.339,16.649-6.511-.2-14.591-8.1-14.306-17.545s4.761-17.273,15.339-16.649C798.236,253.843,801.935,261.3,801.65,270.745Z" transform="translate(-771.998 -253.165)" fill="#a0e9be"/>
        <path id="Path_27491" data-name="Path 27491" d="M813.855,369.931l-1.549,1.916a5.053,5.053,0,0,0,4.08.045l-1.5-2.165Z" transform="translate(-800.633 -335.971)" fill="#99b9ff"/>
        <path id="Path_27492" data-name="Path 27492" d="M846.418,264.478a4.038,4.038,0,0,1,1.413,2.95c-.055.446-.261.809-.731.459a12.8,12.8,0,0,1-1.452-1.751c-.377-.4-3.781-2.474-2.232-2.864A3.52,3.52,0,0,1,846.418,264.478Z" transform="translate(-822.448 -260.306)" fill="#caddff"/>
      </g>
      <path id="Path_27493" data-name="Path 27493" d="M776.277,278.305a.435.435,0,0,1-.346-.7c4.011-5.308,5.94-10.652,5.9-16.338a.434.434,0,0,1,.431-.438h0a.434.434,0,0,1,.435.431c.045,5.885-1.942,11.4-6.073,16.869A.434.434,0,0,1,776.277,278.305Z" transform="translate(-747.92 -240.953)" fill="#fff"/>
    </g>
    <g id="Group_3980" data-name="Group 3980" transform="translate(276.823 126.63)">
      <g id="Group_3955" data-name="Group 3955" transform="translate(15.734 49.654)">
        <g id="Group_3952" data-name="Group 3952" transform="translate(36.789 0)">
          <g id="Group_3946" data-name="Group 3946" transform="translate(4.847)">
            <path id="Path_27494" data-name="Path 27494" d="M472.664,526.65c-1.785-3.4-3.633-6.565-5.511-9.587-3.811-6.132-7.763-11.614-11.742-16.925-2.093-2.794-4.242-5.322-6.37-7.922q-3.211-3.923-6.43-7.8-2.94-3.551-5.878-7.115c-6.52-36.855-13.717-78.639-12.834-78.639l66.785-5.045c1.58,0,2.865,3.423,2.865,7.631V524.76c0,4.207-1.285,7.631-2.865,7.631H475.748C474.737,530.414,473.683,528.589,472.664,526.65Z" transform="translate(-423.66 -393.183)" fill="#99b9ff"/>
            <path id="Path_27495" data-name="Path 27495" d="M489.331,531.759H474.341l-.043-.084c-.567-1.109-1.159-2.189-1.731-3.234-.445-.813-.905-1.653-1.352-2.5-1.642-3.125-3.441-6.255-5.5-9.569-4.018-6.465-8.185-12.175-11.731-16.909-1.617-2.158-3.295-4.192-4.918-6.158q-.724-.877-1.447-1.758c-2.127-2.6-4.255-5.172-6.43-7.8s-3.995-4.826-5.878-7.116l-.054-.066-.025-.144c-13.505-76.337-13.048-78.258-12.876-78.981.042-.177.111-.278.189-.278l66.78-5.045c1.674,0,3.033,3.618,3.033,8.065V523.694C492.359,528.141,491,531.759,489.331,531.759Zm-14.883-.869h14.883c1.49,0,2.7-3.228,2.7-7.2V400.182c0-3.968-1.212-7.2-2.7-7.2l-66.7,5.04c-.023,1.869,1.729,14.9,12.872,77.882,1.864,2.266,3.666,4.444,5.823,7.049,2.175,2.626,4.3,5.2,6.431,7.8q.722.882,1.446,1.757c1.625,1.97,3.306,4.007,4.929,6.172,3.552,4.74,7.725,10.46,11.753,16.941,2.067,3.326,3.873,6.468,5.521,9.6.444.845.9,1.683,1.346,2.494C473.312,528.746,473.89,529.8,474.448,530.89Zm-51.892-132.86h0Z" transform="translate(-422.307 -392.117)"/>
          </g>
          <g id="Group_3948" data-name="Group 3948" transform="translate(0 0.431)">
            <g id="Group_3947" data-name="Group 3947">
              <rect id="Rectangle_2422" data-name="Rectangle 2422" width="73.048" height="137.911" rx="24.861" transform="translate(0.163 0.434)" fill="#fff"/>
              <path id="Path_27496" data-name="Path 27496" d="M448.238,532.385H380.6c-1.58,0-2.866-3.424-2.866-7.634V401.24c0-4.209,1.286-7.634,2.866-7.634h67.641c1.581,0,2.866,3.425,2.866,7.634V524.752C451.1,528.961,449.819,532.385,448.238,532.385ZM380.6,394.475c-1.4,0-2.54,3.035-2.54,6.765V524.752c0,3.73,1.14,6.765,2.54,6.765h67.641c1.4,0,2.54-3.035,2.54-6.765V401.24c0-3.73-1.14-6.765-2.54-6.765Z" transform="translate(-377.731 -393.606)"/>
            </g>
          </g>
          <g id="Group_3950" data-name="Group 3950" transform="translate(0.001 139.211)">
            <g id="Group_3949" data-name="Group 3949" transform="translate(41.823)">
              <path id="Path_27497" data-name="Path 27497" d="M765,873.226h27.613c1.113,0,2.019,2.341,2.019,5.218s-.906,5.218-2.019,5.218H764.18C763.067,883.661,765,873.226,765,873.226Z" transform="translate(-763.676 -872.792)" fill="#99b9ff"/>
              <path id="Path_27498" data-name="Path 27498" d="M791.314,883.03H762.876c-.175,0-.314-.191-.4-.552-.469-1.929.817-9.1,1.08-10.512l.045-.24h27.716c1.2,0,2.182,2.536,2.182,5.652S792.518,883.03,791.314,883.03ZM763.8,872.571c-.574,3.147-1.335,8.3-1.054,9.457.02.082.049.157.126.157h28.438c1.023,0,1.856-2.156,1.856-4.807s-.832-4.807-1.856-4.807Z" transform="translate(-762.372 -871.726)"/>
            </g>
            <path id="Path_27499" data-name="Path 27499" d="M243.714,873.226H308.9c1.115,0,2.019,2.336,2.019,5.218s-.9,5.218-2.019,5.218H243.714c-1.115,0-2.019-2.336-2.019-5.218S242.6,873.226,243.714,873.226Z" transform="translate(-241.695 -872.792)" fill="#99b9ff"/>
          </g>
          <g id="Group_3951" data-name="Group 3951" transform="translate(2.773 6.078)">
            <path id="Path_27500" data-name="Path 27500" d="M405.756,413.106h63.177c1.394,0,2.525,3.02,2.525,6.746V535.583c0,3.726-1.13,6.746-2.525,6.746H405.756c-1.394,0-2.525-3.02-2.525-6.746V419.852C403.231,416.126,404.361,413.106,405.756,413.106Z" transform="translate(-403.231 -413.106)" fill="#caddff"/>
          </g>
        </g>
        <g id="Group_3954" data-name="Group 3954" transform="translate(39.514 6.13)">
          <path id="Path_27501" data-name="Path 27501" d="M471.074,424.1l.073-4.178c0-3.692-1.179-6.633-2.573-6.633H405.4c-1.394,0-2.536,2.941-2.536,6.633l-.073,5.143Z" transform="translate(-402.788 -413.286)" fill="#99b9ff"/>
          <g id="Group_3953" data-name="Group 3953" transform="translate(2.41 4.49)">
            <ellipse id="Ellipse_1136" data-name="Ellipse 1136" cx="0.816" cy="2.172" rx="0.816" ry="2.172" transform="translate(0 0.145)" fill="#caddff"/>
            <ellipse id="Ellipse_1137" data-name="Ellipse 1137" cx="0.816" cy="2.172" rx="0.816" ry="2.172" transform="translate(2.61)" fill="#caddff"/>
            <ellipse id="Ellipse_1138" data-name="Ellipse 1138" cx="0.816" cy="2.172" rx="0.816" ry="2.172" transform="translate(5.437 0.29)" fill="#caddff"/>
          </g>
          <path id="Rectangle_2423" data-name="Rectangle 2423" d="M11.25,0H51.216A11.249,11.249,0,0,1,62.466,11.249V98.93A11.249,11.249,0,0,1,51.216,110.18H11.249A11.249,11.249,0,0,1,0,98.93V11.25A11.25,11.25,0,0,1,11.25,0Z" transform="translate(3.075 11.777)" fill="#fff" opacity="0.55"/>
        </g>
        <path id="Path_27502" data-name="Path 27502" d="M521.35,883.188H420.543a.444.444,0,0,1,0-.869H521.35c2.2,0,3.988-2.217,3.988-4.943s-1.789-4.942-3.988-4.942l-102.832-.065a.444.444,0,0,1,0-.869h0l102.832.065c2.585,0,4.689,2.607,4.689,5.811S523.935,883.188,521.35,883.188Z" transform="translate(-418.167 -732.673)"/>
        <g id="Check" transform="translate(54.6 55.205)">
          <circle id="Ellipse_1083" data-name="Ellipse 1083" cx="19.5" cy="19.5" r="19.5" transform="translate(0.197 -0.179)" fill="#2fbf71"/>
          <path id="ic_check_24px" d="M9.624,17.351,4.989,12.716,3.41,14.283,9.624,20.5l13.34-13.34L21.4,5.59Z" transform="translate(6.315 6.853)" fill="#fff"/>
        </g>
      </g>
    </g>
    <g id="Group_3981" data-name="Group 3981" transform="translate(241.352 116.728)">
      <path id="Path_27541" data-name="Path 27541" d="M241.787,231.159a.434.434,0,0,1-.326-.721,19.013,19.013,0,0,1,5.739-4.326c6.1-3.1,15.974-4.289,26.429-5.552,12-1.449,25.6-3.091,36.094-7.913,16.51-7.582,23.167-14.808,23.744-25.771a.434.434,0,0,1,.868.046c-.6,11.341-7.4,18.775-24.249,26.515-10.622,4.878-24.292,6.529-36.352,7.986-10.376,1.253-20.177,2.437-26.139,5.464a18.135,18.135,0,0,0-5.48,4.125A.434.434,0,0,1,241.787,231.159Z" transform="translate(-241.353 -186.464)"/>
      <path id="Path_27542" data-name="Path 27542" d="M259.134,331.7s4.672-6.1,9.932-6.995c0,0,2.956,14.769,3.179,17.795A23.014,23.014,0,0,1,259.134,331.7Z" transform="translate(-253.985 -284.674)" fill="#caddff"/>
      <path id="Path_27543" data-name="Path 27543" d="M329.758,311.683l13.466-1.858s-3.6,13.9-5.565,18.006A88.937,88.937,0,0,1,329.758,311.683Z" transform="translate(-304.156 -274.1)" fill="#99b9ff"/>
      <path id="Path_27544" data-name="Path 27544" d="M403.408,298.759l14.924-3.425s-3.051,15.276-6.5,21.6C411.831,316.932,405.161,308.206,403.408,298.759Z" transform="translate(-356.478 -263.806)" fill="#caddff"/>
      <path id="Path_27545" data-name="Path 27545" d="M481.094,269.506s11.046-4.967,13.7-8.083c0,0,1.2,17.961-1.043,24.076C493.755,285.5,482.847,274.474,481.094,269.506Z" transform="translate(-411.666 -239.715)" fill="#99b9ff"/>
      <path id="Path_27546" data-name="Path 27546" d="M554.95,197.526s-.244,9.426-6.26,14.9c0,0,7.765,4.468,12.5,4.328a81.032,81.032,0,0,1-2.743-8.258C557.584,205,556.341,198.208,554.95,197.526Z" transform="translate(-459.687 -194.322)" fill="#caddff"/>
      <path id="Path_27547" data-name="Path 27547" d="M278.508,329.066a.434.434,0,0,1-.283-.764,14.433,14.433,0,0,1,6.734-3.567.435.435,0,0,1,.5.343s.277,1.386.668,3.4a.434.434,0,1,1-.853.166c-.262-1.345-.473-2.41-.583-2.966a14.165,14.165,0,0,0-5.9,3.289A.434.434,0,0,1,278.508,329.066Z" transform="translate(-267.439 -284.688)"/>
      <path id="Path_27548" data-name="Path 27548" d="M284.073,367.238a.431.431,0,0,1-.113-.015,23.485,23.485,0,0,1-11.625-8.234.434.434,0,0,1,.7-.519,23.211,23.211,0,0,0,10.542,7.715c-.144-1.179-.483-3.241-1.011-6.152a.434.434,0,0,1,.855-.155c.65,3.581,1.016,5.9,1.089,6.893a.435.435,0,0,1-.433.466Z" transform="translate(-263.302 -308.535)"/>
      <path id="Path_27549" data-name="Path 27549" d="M339.043,319.154a.435.435,0,0,1-.4-.262c-.648-1.5-1.218-2.959-1.693-4.335a.434.434,0,0,1,.351-.572l6.733-.929a.435.435,0,0,1,.119.861l-6.207.856c.431,1.207.932,2.474,1.494,3.774a.434.434,0,0,1-.4.607Z" transform="translate(-309.25 -276.393)"/>
      <path id="Path_27550" data-name="Path 27550" d="M352.052,349.726a.434.434,0,0,1-.366-.2,96.4,96.4,0,0,1-5.161-9.49.434.434,0,0,1,.785-.371,98.206,98.206,0,0,0,4.678,8.7c.716-1.725,1.689-4.677,2.846-8.635a.434.434,0,0,1,.834.244,76.074,76.074,0,0,1-3.224,9.508.435.435,0,0,1-.365.247Z" transform="translate(-316.038 -295.121)"/>
      <path id="Path_27551" data-name="Path 27551" d="M432.657,347.2a.434.434,0,0,1-.345-.171,49.8,49.8,0,0,1-3.063-4.679.435.435,0,0,1,.75-.439c1.1,1.875,2.072,3.3,2.6,4.033a55.591,55.591,0,0,0,3.221-8.921.434.434,0,0,1,.835.241,51.321,51.321,0,0,1-3.612,9.709.434.434,0,0,1-.348.225Z" transform="translate(-374.793 -293.197)"/>
      <path id="Path_27552" data-name="Path 27552" d="M432.343,303.525a.434.434,0,0,1-.421-.54c.743-2.956,1.288-5.476,1.528-6.622l-10.973,2.518a.434.434,0,1,1-.194-.847l11.632-2.669a.434.434,0,0,1,.523.509c-.006.032-.656,3.271-1.674,7.323A.435.435,0,0,1,432.343,303.525Z" transform="translate(-369.647 -263.821)"/>
      <path id="Path_27553" data-name="Path 27553" d="M536.389,298.137h-.031a.434.434,0,0,1-.4-.464c.188-2.66.251-5.867.188-9.532a.435.435,0,0,1,.427-.442.43.43,0,0,1,.442.427c.064,3.691,0,6.924-.19,9.609A.434.434,0,0,1,536.389,298.137Z" transform="translate(-450.639 -258.38)"/>
      <path id="Path_27554" data-name="Path 27554" d="M526.314,266.837a.434.434,0,0,1-.434-.419c-.052-1.506-.114-2.75-.157-3.547a24.344,24.344,0,0,1-3.442,2.443.434.434,0,0,1-.453-.742,17.567,17.567,0,0,0,3.94-2.978.434.434,0,0,1,.764.253c0,.018.124,1.871.216,4.54a.434.434,0,0,1-.419.449Z" transform="translate(-440.456 -239.728)"/>
      <path id="Path_27555" data-name="Path 27555" d="M494.307,296.146a.434.434,0,0,1-.333-.155c-3.122-3.72-5.035-6.54-5.686-8.384a.434.434,0,0,1,.231-.541c.008,0,.812-.365,2.016-.944a.435.435,0,0,1,.376.784c-.726.348-1.308.619-1.661.782a36.372,36.372,0,0,0,5.389,7.744.435.435,0,0,1-.333.714Z" transform="translate(-416.759 -257.232)"/>
      <path id="Path_27556" data-name="Path 27556" d="M524.385,334.263a.433.433,0,0,1-.309-.129c-.014-.014-1.426-1.443-3.286-3.468a.434.434,0,0,1,.64-.588c1.19,1.3,2.2,2.346,2.764,2.933a23.994,23.994,0,0,0,.7-3.792.434.434,0,1,1,.863.1,21.254,21.254,0,0,1-.96,4.66.435.435,0,0,1-.315.275A.453.453,0,0,1,524.385,334.263Z" transform="translate(-439.786 -287.605)"/>
      <path id="Path_27557" data-name="Path 27557" d="M573.318,205.333a.434.434,0,0,1-.412-.572,26.3,26.3,0,0,0,1.308-6.793.435.435,0,0,1,.626-.379c.879.431,1.626,2.3,2.664,6.659a.435.435,0,0,1-.845.2,28.382,28.382,0,0,0-1.653-5.371,27.916,27.916,0,0,1-1.275,5.957A.434.434,0,0,1,573.318,205.333Z" transform="translate(-476.874 -194.337)"/>
      <path id="Path_27558" data-name="Path 27558" d="M577.753,240.154c-2.693,0-6.212-1.338-8.723-2.48a.434.434,0,1,1,.359-.791,24.824,24.824,0,0,0,7.946,2.391,76.967,76.967,0,0,1-2.528-7.711c-.133-.536-.274-1.148-.423-1.8a.434.434,0,1,1,.847-.193c.148.65.288,1.257.419,1.788a80.972,80.972,0,0,0,2.725,8.2.434.434,0,0,1-.391.593Q577.87,240.154,577.753,240.154Z" transform="translate(-473.955 -216.844)"/>
    </g>
    <g id="Group_3993" data-name="Group 3993" transform="translate(249.889 196.22)">
      <g id="Group_3987" data-name="Group 3987" transform="translate(0 64.397)">
        <g id="Group_3983" data-name="Group 3983" transform="translate(0 65.5)">
          <path id="Path_27559" data-name="Path 27559" d="M275.48,913.947s-3.592,4.765-3.335,7.9l-.073,1.213-7.5-6.821,1.047-.425c1.659-1.134,3.411-1.808,4.375-3.572Z" transform="translate(-257.863 -912.24)" fill="#5479f7"/>
          <g id="Group_3982" data-name="Group 3982" transform="translate(0 1.117)">
            <path id="Path_27560" data-name="Path 27560" d="M258.033,924.089l-.116,1.477a18.1,18.1,0,0,0,1.413,8.558l.889,2.072a.648.648,0,0,1-.049.6l-.059.092c-.653,1.023-3.533,1.905-7.174-.564-2.253-1.528-6.823-5.769-9.947-13.179a1.156,1.156,0,0,1,.32-1.337c1.419-1.19,4.921-3.907,7.652-4.212a.512.512,0,0,1,.576.5l.026,2.941a2.382,2.382,0,0,0,2.414,2.36l3.37-.045A.678.678,0,0,1,258.033,924.089Z" transform="translate(-242.463 -917.164)" fill="#fff"/>
            <path id="Path_27561" data-name="Path 27561" d="M256.4,937.292a8.518,8.518,0,0,1-4.776-1.669c-1.045-.708-6.44-4.681-10.1-13.369a1.584,1.584,0,0,1,.441-1.838c1.418-1.19,5.026-3.992,7.883-4.311a.962.962,0,0,1,.742.234.939.939,0,0,1,.316.694l.026,2.941a1.935,1.935,0,0,0,.586,1.375,1.891,1.891,0,0,0,1.388.555l3.37-.045a1.163,1.163,0,0,1,.827.352,1.116,1.116,0,0,1,.3.848l-.116,1.477a17.734,17.734,0,0,0,1.379,8.353l.89,2.072a1.083,1.083,0,0,1-.082,1.01l-.059.092a2.964,2.964,0,0,1-1.93,1.126A5.344,5.344,0,0,1,256.4,937.292Zm-6.447-20.324h-.012c-2.621.292-6.063,2.973-7.421,4.113a.719.719,0,0,0-.2.835c3.568,8.464,8.782,12.3,9.791,12.988,2.462,1.669,4.309,1.613,5.191,1.432a2.144,2.144,0,0,0,1.373-.742l.059-.092a.214.214,0,0,0,.016-.2l-.89-2.071a18.609,18.609,0,0,1-1.447-8.764l.116-1.477.433.034-.433-.034a.241.241,0,0,0-.065-.186.248.248,0,0,0-.181-.077l-3.37.045a2.817,2.817,0,0,1-2.854-2.791l-.026-2.94a.066.066,0,0,0-.023-.052A.088.088,0,0,0,249.953,916.968Z" transform="translate(-241.394 -916.099)"/>
          </g>
          <path id="Path_27562" data-name="Path 27562" d="M265.519,941.07a.434.434,0,0,1-.173-.036l-.465-.2a10.283,10.283,0,0,1-5.533-5.861l-.311-.846a.113.113,0,0,0-.106-.079.111.111,0,0,0-.115.066l-.4.791a1.08,1.08,0,0,1-1.733.268,22.963,22.963,0,0,1-5.127-8l-.637-1.677a.434.434,0,1,1,.812-.308l.637,1.677a22.1,22.1,0,0,0,4.934,7.7.211.211,0,0,0,.339-.052l.4-.791a.99.99,0,0,1,1.811.107l.311.846a9.408,9.408,0,0,0,5.064,5.364l.465.2a.434.434,0,0,1-.173.833Z" transform="translate(-248.14 -921.238)"/>
        </g>
        <g id="Group_3985" data-name="Group 3985" transform="translate(35.628 80.477)">
          <path id="Path_27563" data-name="Path 27563" d="M379.423,964.068s-.412,4.691,1.533,6.916l.606.956-9.119-.484.44-1a15.742,15.742,0,0,0,1.233-6.5Z" transform="translate(-370.119 -963.958)" fill="#5479f7"/>
          <g id="Group_3984" data-name="Group 3984" transform="translate(0 3.376)">
            <path id="Path_27564" data-name="Path 27564" d="M376.041,977.3l.916.943a16.052,16.052,0,0,0,6.528,4.073l1.9.621a.576.576,0,0,1,.374.387l.027.093c.3,1.034-.8,3.469-4.578,4.448a26.988,26.988,0,0,1-14.048-.915,1.786,1.786,0,0,1-1.238-1.788c.084-1.868.414-5.2,1.669-6.971a.442.442,0,0,1,.657-.073l1.976,1.707a2.113,2.113,0,0,0,2.986-.225l1.945-2.271A.6.6,0,0,1,376.041,977.3Z" transform="translate(-365.485 -976.684)" fill="#fff"/>
            <path id="Path_27565" data-name="Path 27565" d="M375.186,987.768a30.751,30.751,0,0,1-9.222-1.47,2.221,2.221,0,0,1-1.542-2.222c.085-1.886.425-5.33,1.749-7.2a.873.873,0,0,1,.606-.363.9.9,0,0,1,.689.213l1.975,1.706a1.678,1.678,0,0,0,2.372-.179l1.945-2.271a1.036,1.036,0,0,1,.754-.361,1.02,1.02,0,0,1,.776.313l.916.943a15.688,15.688,0,0,0,6.351,3.963l1.9.621a1.008,1.008,0,0,1,.656.679l.027.093a2.676,2.676,0,0,1-.386,1.983,6.846,6.846,0,0,1-4.5,3.006A20.96,20.96,0,0,1,375.186,987.768ZM366.9,977.381c-1.214,1.686-1.527,4.943-1.608,6.735a1.351,1.351,0,0,0,.935,1.354c7.443,2.342,12.808,1.168,13.809.908A6,6,0,0,0,384,983.783a1.858,1.858,0,0,0,.306-1.312l-.027-.093a.14.14,0,0,0-.091-.094l-1.9-.622a16.548,16.548,0,0,1-6.7-4.183l-.916-.942a.171.171,0,0,0-.125-.051.165.165,0,0,0-.122.058l-1.945,2.271a2.546,2.546,0,0,1-3.6.271Z" transform="translate(-364.42 -975.617)"/>
          </g>
          <path id="Path_27566" data-name="Path 27566" d="M374.215,998.258a20.406,20.406,0,0,1-7.19-1.306l-1.49-.558a.434.434,0,1,1,.3-.814l1.49.558a19.531,19.531,0,0,0,8,1.22.135.135,0,0,0,.109-.064.133.133,0,0,0,.012-.125l-.291-.731a.926.926,0,0,1,1.2-1.207l.745.288a8.3,8.3,0,0,0,6.5-.229l.407-.191a.434.434,0,0,1,.37.786l-.407.191a9.169,9.169,0,0,1-7.184.253l-.745-.288a.053.053,0,0,0-.062.013.052.052,0,0,0-.012.062l.291.73a1.007,1.007,0,0,1-.879,1.379Q374.794,998.258,374.215,998.258Z" transform="translate(-365.011 -986.052)"/>
        </g>
        <g id="Group_3986" data-name="Group 3986" transform="translate(11.331)">
          <path id="Path_27567" data-name="Path 27567" d="M337.355,689.9s-3.68,12.178,2.595,20.821c8.456,11.646,3.624,38.514,7.856,56.582a.76.76,0,0,0,.75.583l5.125-.056a.759.759,0,0,0,.726-.563c1.206-4.505,9.3-35,9.041-41.076-.059-1.387-.236-3-.48-4.7a81.31,81.31,0,0,0-7.283-23.726l-5.637-11.7Z" transform="translate(-320.134 -686.063)"/>
          <path id="Path_27568" data-name="Path 27568" d="M293.771,694.546s-4.629,8.6-2.58,17.656a27.556,27.556,0,0,1-3.2,20.1c-2.146,3.492-6.079,12.3-7.46,25.4a1.035,1.035,0,0,0,.312.857,8.119,8.119,0,0,0,5.215,2.21,1.043,1.043,0,0,0,.826-.352c2.131-2.421,14.393-16.633,18.751-27.938,4.779-12.4,5.675-33,5.675-33S299.409,700.723,293.771,694.546Z" transform="translate(-280.521 -692.089)"/>
          <path id="Path_27569" data-name="Path 27569" d="M343.592,759.513a.435.435,0,0,1-.433-.4c-.522-7.216-1.443-14.5-4.621-18.873a21.328,21.328,0,0,1-3.748-12.54.434.434,0,0,1,.869-.01,20.479,20.479,0,0,0,3.582,12.04c3.306,4.553,4.253,11.977,4.784,19.321a.435.435,0,0,1-.4.465Z" transform="translate(-319.074 -715.327)" fill="#caddff"/>
        </g>
      </g>
      <g id="Group_3990" data-name="Group 3990" transform="translate(4.808 0)">
        <path id="Path_27570" data-name="Path 27570" d="M320.577,583.408s11.439-5.107,21.56-2.853c0,0,7.572,3.114,6.531,9.876-3.041,5-2.722,11.974-2.739,15.459-.015,3.01-1.044,11.91-1.776,12.954-1.576,2.249-4.531,1.217-11.97.57-8.74-.76-9.794-2.433-11.59-4.37-1.2-1.29-.32-6.148-.177-7.034C321.134,603.573,323.069,596.2,320.577,583.408Z" transform="translate(-302.023 -546.305)" fill="#2fbf71"/>
        <path id="Path_27571" data-name="Path 27571" d="M381,525.931l.67-3.77c1.674-2.742,7.485-3.634,10.475-4.808,12.4-4.869,13.218-16.775,14.212-22.024l4.428.232s4.508,30.157-23.612,38.643Z" transform="translate(-345.379 -486.168)" fill="#2fbf71"/>
        <path id="Path_27572" data-name="Path 27572" d="M264.881,483.578c4.287,14.552,17.7,29.173,21.371,29.463,0,0,3.6,29.249-19.37-2.393-6.964-9.595-4.991-26.1-4.991-26.1Z" transform="translate(-260.58 -477.82)" fill="#2fbf71"/>
        <g id="Group_3988" data-name="Group 3988">
          <path id="Path_27573" data-name="Path 27573" d="M263.294,471.4a3.67,3.67,0,0,0,.668-.54c1.069-1.087,2.812-3.764,1.2-5.1-1.211-1-3.37-.458-4.591.222-1.526.849-1.16,3.136-.519,4.466A2.111,2.111,0,0,0,263.294,471.4Z" transform="translate(-259.063 -464.772)" fill="#fff"/>
          <path id="Path_27574" data-name="Path 27574" d="M260.9,471.167a2.352,2.352,0,0,1-.655-.092,2.7,2.7,0,0,1-1.654-1.515c-.71-1.473-1.11-4.029.7-5.035,1.095-.609,3.566-1.43,5.079-.176a2.178,2.178,0,0,1,.808,1.63c.081,1.58-1.257,3.378-1.976,4.109a4.1,4.1,0,0,1-.748.6h0A2.952,2.952,0,0,1,260.9,471.167Zm1.323-.844h0Zm.114-5.757a5.875,5.875,0,0,0-2.625.718c-1.274.709-.884,2.767-.339,3.9a1.863,1.863,0,0,0,1.113,1.058,1.883,1.883,0,0,0,1.507-.286,3.229,3.229,0,0,0,.589-.477,5.667,5.667,0,0,0,1.727-3.455,1.323,1.323,0,0,0-.494-1A2.275,2.275,0,0,0,262.341,464.567Z" transform="translate(-257.996 -463.694)"/>
        </g>
        <g id="Group_3989" data-name="Group 3989" transform="translate(59.918 2.972)">
          <path id="Path_27575" data-name="Path 27575" d="M469.87,481.7a3.718,3.718,0,0,0,.8-.2c1.34-.489,3.306-2.46,2.932-4.036-.534-2.258-5.435-2.668-6.666-.964C465.442,478.568,467.294,482.033,469.87,481.7Z" transform="translate(-465.966 -475.021)" fill="#fff"/>
          <path id="Path_27576" data-name="Path 27576" d="M468.468,481.094a3.505,3.505,0,0,1-2.971-1.829,3.727,3.727,0,0,1,.018-4.08c.867-1.2,2.945-1.41,4.51-1.1,1.581.315,2.677,1.145,2.931,2.218.456,1.928-1.817,4.038-3.206,4.545a4.176,4.176,0,0,1-.892.221h0A3.11,3.11,0,0,1,468.468,481.094Zm.335-.456h0Zm-.08-5.812a3.2,3.2,0,0,0-2.5.868,2.863,2.863,0,0,0,.024,3.128,2.609,2.609,0,0,0,2.5,1.386,3.312,3.312,0,0,0,.705-.175c1.24-.452,2.96-2.25,2.658-3.528-.173-.734-1.016-1.319-2.255-1.566A5.825,5.825,0,0,0,468.723,474.826Z" transform="translate(-464.9 -473.956)"/>
        </g>
        <path id="Path_27577" data-name="Path 27577" d="M298.381,551.1a41.458,41.458,0,0,1-4.309-.36c-1.253-.142-2.674-.3-4.325-.447-8.423-.732-9.886-2.334-11.58-4.19-.1-.105-.193-.211-.292-.318-.865-.933-.967-3.3-.311-7.25l.025-.149c.115-.711.275-1.5.443-2.331a54.388,54.388,0,0,0,1.229-9.1,4.372,4.372,0,0,0-2.113-3.888c-2.83-1.736-6.726-6.193-11.578-13.245-6.734-9.787-5.136-25.721-5.064-26.395a.434.434,0,0,1,.3-.367l2.989-.968a.435.435,0,0,1,.551.29c3.555,12.066,9.819,19.325,17.039,26.909a5.4,5.4,0,0,0,5.662,1.383c2.088-.722,7.183-.558,10.034-.4a4.628,4.628,0,0,0,2.3-.489,25.066,25.066,0,0,1,4.217-1.44c.983-.274,1.911-.533,2.642-.82,11.035-4.332,12.681-14.2,13.664-20.091.1-.586.188-1.126.279-1.61a.441.441,0,0,1,.449-.353l4.428.232a.434.434,0,0,1,.4.351,40.612,40.612,0,0,1-.315,14.183,29.894,29.894,0,0,1-17.319,22.006,5.771,5.771,0,0,0-3.34,4.628c-.329,3.216-.5,6.4-.52,9.461-.014,2.661-.99,11.967-1.855,13.2C301.281,550.728,300.137,551.1,298.381,551.1Zm-37.036-67.3c-.184,2.19-1.133,16.7,4.942,25.531,4.783,6.952,8.591,11.325,11.317,13A5.242,5.242,0,0,1,280.13,527a55.073,55.073,0,0,1-1.246,9.233c-.167.825-.325,1.6-.437,2.3l-.025.152c-.786,4.736-.28,6.116.091,6.517q.151.162.3.323c1.571,1.721,2.927,3.207,11.013,3.91,1.662.144,3.089.307,4.347.45,4.225.48,6.153.7,7.229-.837.612-.873,1.681-9.408,1.7-12.707.016-3.09.192-6.3.524-9.545a6.643,6.643,0,0,1,3.842-5.329,29.056,29.056,0,0,0,16.829-21.389,40.223,40.223,0,0,0,.37-13.511l-3.7-.194c-.067.378-.135.785-.207,1.218-.947,5.677-2.71,16.244-14.2,20.757-.773.3-1.722.568-2.727.849a24.51,24.51,0,0,0-4.066,1.382,5.5,5.5,0,0,1-2.729.577c-2.244-.128-7.682-.348-9.7.35a6.273,6.273,0,0,1-6.574-1.6c-7.213-7.578-13.485-14.839-17.115-26.836Z" transform="translate(-259.627 -476.754)"/>
      </g>
      <g id="Group_3992" data-name="Group 3992" transform="translate(28.659 13.984)">
        <path id="Path_27578" data-name="Path 27578" d="M348.132,527.519c-.765.7-2.261,1.565-3.436.977a3.042,3.042,0,0,1-1.338-2.881,1.749,1.749,0,0,1-1.314-.326c-.584-.513-.477-1.461-.456-2.083.1-2.874-1.572-3.31-1.169-5.261a4.634,4.634,0,0,1,1.743-2.62c1.134-.865,1.9-.589,3.814-1.094,3.213-.85,3.312-2.236,5.43-2.248.122,0,3.005.024,3.989,2.012.8,1.618-.125,3.589-1.083,4.625-1.241,1.343-2.136.683-3.382,1.81C348.742,522.406,350.4,525.427,348.132,527.519Z" transform="translate(-340.355 -511.981)"/>
        <g id="Group_3991" data-name="Group 3991" transform="translate(2.012 4.223)">
          <path id="Path_27579" data-name="Path 27579" d="M360.428,533.175a6.41,6.41,0,0,1-1.653-2.576c-.921-3.072-3.777-3.5-3.91-.454-.035.811-2.995.776-2.641,1.626.922,2.215.94,1.618-.35,2.439a1.117,1.117,0,0,0-.428.1,1.481,1.481,0,0,0-.519,2.011,1.715,1.715,0,0,0,1.054.939l.009,3.5a3.234,3.234,0,0,1-2,3l-1.182.487a10.235,10.235,0,0,0,11.116-.381l-.748-.333a3.769,3.769,0,0,1-2.234-3.315l-.008-.685a2.928,2.928,0,0,0,1.078-.093c1.565-.46,2.08-2.265,1.809-4.508l.656-.663A.751.751,0,0,0,360.428,533.175Z" transform="translate(-348.371 -527.632)" fill="#fff"/>
          <path id="Path_27580" data-name="Path 27580" d="M353.177,545.093a11.5,11.5,0,0,1-5.674-1.544.434.434,0,0,1,.071-.766l1.182-.486a2.79,2.79,0,0,0,1.734-2.6l-.008-3.207a2.273,2.273,0,0,1-1.171-2.535,1.639,1.639,0,0,1,.884-1.107,1.536,1.536,0,0,1,.472-.134c.2-.124.373-.216.5-.286.07-.038.146-.078.2-.11-.04-.131-.15-.383-.265-.646-.095-.218-.211-.482-.345-.806a.732.732,0,0,1,.01-.616c.217-.448.829-.621,1.538-.822a3.685,3.685,0,0,0,1.062-.4c.07-1.411.7-2.325,1.7-2.449,1.259-.155,2.514,1.007,3.06,2.828a5.992,5.992,0,0,0,1.52,2.371,1.186,1.186,0,0,1,.071,1.734l-.51.516c.259,2.557-.515,4.289-2.141,4.767a3.141,3.141,0,0,1-.761.121l0,.235a3.352,3.352,0,0,0,1.976,2.924l.748.333a.435.435,0,0,1,.075.751A10.074,10.074,0,0,1,353.177,545.093Zm-4.428-1.854a9.593,9.593,0,0,0,9.2-.362l-.023-.01a4.23,4.23,0,0,1-2.491-3.7l-.008-.7a.434.434,0,0,1,.472-.437,2.517,2.517,0,0,0,.918-.077c1.734-.509,1.626-2.994,1.5-4.039a.435.435,0,0,1,.123-.358l.656-.663a.317.317,0,0,0-.019-.463h0a6.809,6.809,0,0,1-1.787-2.781c-.465-1.552-1.438-2.3-2.119-2.215-.547.068-.9.687-.94,1.656-.03.7-.875.94-1.692,1.171a4.661,4.661,0,0,0-.953.338c.12.287.224.524.31.722.438,1,.6,1.376-.319,1.87-.144.077-.323.174-.539.311a.435.435,0,0,1-.214.067.694.694,0,0,0-.263.063.787.787,0,0,0-.413.537,1.337,1.337,0,0,0,.1.9,1.29,1.29,0,0,0,.779.706.434.434,0,0,1,.316.417l.009,3.5a3.655,3.655,0,0,1-2.272,3.4Z" transform="translate(-347.305 -526.565)"/>
        </g>
        <path id="Path_27581" data-name="Path 27581" d="M368.06,562.085a.424.424,0,0,1-.065,0,5.013,5.013,0,0,1-3.466-2.233.434.434,0,0,1,.751-.436,4.133,4.133,0,0,0,2.844,1.81.434.434,0,0,1-.064.864Z" transform="translate(-357.487 -545.522)"/>
      </g>
    </g>
    <g id="Group_3998" data-name="Group 3998" transform="translate(322.733 120.715)">
      <g id="Group_3994" data-name="Group 3994" transform="translate(0 220.546)">
        <path id="Path_27582" data-name="Path 27582" d="M577.806,980.468a113.809,113.809,0,0,1-38.866-7.009.434.434,0,1,1,.3-.816c24.853,9.045,50.979,9.277,73.566.653a.435.435,0,0,1,.31.812A98.884,98.884,0,0,1,577.806,980.468Z" transform="translate(-533.938 -969.483)"/>
        <path id="Path_27583" data-name="Path 27583" d="M606.618,967.525a103.914,103.914,0,0,1-28.373-4.032.434.434,0,0,1,.237-.836c18.613,5.285,37.537,5.331,54.725.135a.434.434,0,0,1,.251.831A92.646,92.646,0,0,1,606.618,967.525Z" transform="translate(-561.839 -962.397)"/>
        <path id="Path_27584" data-name="Path 27584" d="M524.4,965.866c-.049,0-.1,0-.147-.005a2.034,2.034,0,0,1,.288-4.058h0a2.034,2.034,0,0,1-.141,4.064Zm0-3.2a1.166,1.166,0,1,0,.084,0C524.456,962.667,524.427,962.666,524.4,962.666Z" transform="translate(-522.367 -961.797)"/>
        <path id="Path_27585" data-name="Path 27585" d="M802.341,966.743a.433.433,0,0,1-.308-.128l-2.8-2.817a.434.434,0,0,1,.169-.718c1.754-.589,3.568-1.031,3.585-1.035a.435.435,0,0,1,.529.5l-.745,3.842a.435.435,0,0,1-.426.352Zm-2-3.057,1.727,1.735.458-2.363C801.993,963.2,801.19,963.42,800.343,963.686Z" transform="translate(-718.961 -961.964)"/>
      </g>
      <g id="Group_3995" data-name="Group 3995" transform="translate(122.666 0)">
        <path id="Path_27586" data-name="Path 27586" d="M962.248,202.221a.434.434,0,0,1-.368-.664l.7-1.122a.434.434,0,0,1,.737.46l-.7,1.122A.433.433,0,0,1,962.248,202.221Z" transform="translate(-957.219 -200.23)"/>
        <path id="Path_27587" data-name="Path 27587" d="M950.673,220.772a.434.434,0,0,1-.368-.664l.7-1.122a.434.434,0,0,1,.737.46l-.7,1.122A.434.434,0,0,1,950.673,220.772Z" transform="translate(-948.996 -213.409)"/>
        <path id="Path_27588" data-name="Path 27588" d="M966.186,217.571a.432.432,0,0,1-.228-.065l-1.13-.7a.434.434,0,1,1,.457-.739l1.129.7a.434.434,0,0,1-.229.8Z" transform="translate(-959.215 -211.437)"/>
        <path id="Path_27589" data-name="Path 27589" d="M947.511,206.039a.432.432,0,0,1-.228-.065l-1.129-.7a.434.434,0,1,1,.456-.739l1.129.7a.435.435,0,0,1-.229.8Z" transform="translate(-945.947 -203.244)"/>
      </g>
      <g id="Group_3997" data-name="Group 3997" transform="translate(99.028 137.443)">
        <g id="Group_3996" data-name="Group 3996" transform="translate(0 11.295)">
          <path id="Path_27590" data-name="Path 27590" d="M877.6,715.886a.467.467,0,0,1-.06,0,.434.434,0,0,1-.371-.49l.163-1.18a.434.434,0,1,1,.861.119l-.163,1.18A.434.434,0,0,1,877.6,715.886Z" transform="translate(-873.446 -713.838)"/>
          <path id="Path_27591" data-name="Path 27591" d="M874.9,735.4a.467.467,0,0,1-.06,0,.434.434,0,0,1-.371-.49l.163-1.18a.434.434,0,1,1,.861.119l-.163,1.179A.435.435,0,0,1,874.9,735.4Z" transform="translate(-871.528 -727.699)"/>
          <path id="Path_27592" data-name="Path 27592" d="M865.934,724.933a.483.483,0,0,1-.064,0l-1.178-.174a.435.435,0,0,1,.127-.86l1.178.174a.434.434,0,0,1-.063.864Z" transform="translate(-864.321 -720.979)"/>
          <path id="Path_27593" data-name="Path 27593" d="M885.421,727.809a.481.481,0,0,1-.064,0l-1.178-.174a.435.435,0,0,1,.127-.86l1.178.174a.434.434,0,0,1-.063.864Z" transform="translate(-878.164 -723.022)"/>
        </g>
        <path id="Path_27594" data-name="Path 27594" d="M936.087,714.634a2.734,2.734,0,0,1-.518-.05,2.687,2.687,0,1,1,.518.05Zm-1.8-3.049a1.832,1.832,0,1,0,2.146-1.451A1.834,1.834,0,0,0,934.283,711.586Z" transform="translate(-913.381 -699.271)"/>
        <path id="Path_27595" data-name="Path 27595" d="M980.75,678.974a2.07,2.07,0,1,1,2.031-1.677A2.071,2.071,0,0,1,980.75,678.974Zm-1.18-2.3a1.2,1.2,0,1,0,1.407-.951A1.2,1.2,0,0,0,979.57,676.676Z" transform="translate(-945.562 -674.834)"/>
      </g>
    </g>
  </g>
</svg>
