<svg id="Group_3913" data-name="Group 3913" xmlns="http://www.w3.org/2000/svg" width="40" height="40" viewBox="0 0 40 40">
  <circle id="Ellipse_1131" data-name="Ellipse 1131" cx="20" cy="20" r="20" fill="#64c2eb"/>
  <g id="Group_3912" data-name="Group 3912" transform="translate(10.191 6.917)">
    <g id="Group_3911" data-name="Group 3911">
      <g id="Group_3909" data-name="Group 3909" transform="translate(2.407)">
        <path id="Path_27441" data-name="Path 27441" d="M310.066,111.162a7.165,7.165,0,0,1-.048-14.329A7.027,7.027,0,0,1,315.09,98.9a7.167,7.167,0,0,1-4.976,12.263Zm0-12.3h-.034a5.132,5.132,0,0,0-5.093,5.173,5.14,5.14,0,0,0,5.127,5.105h.034a5.139,5.139,0,0,0,5.092-5.173h0a5.133,5.133,0,0,0-5.126-5.106Z" transform="translate(-302.914 -96.832)" fill="#fff"/>
      </g>
      <g id="Group_3910" data-name="Group 3910" transform="translate(0 15.563)">
        <path id="Path_27442" data-name="Path 27442" d="M317.277,134.381h-2.025v-3.224a1.563,1.563,0,0,0-1.562-1.562H301.746a1.563,1.563,0,0,0-1.562,1.562v3.224h-2.025v-3.224a3.591,3.591,0,0,1,3.587-3.587h11.945a3.591,3.591,0,0,1,3.587,3.587Z" transform="translate(-298.159 -127.57)" fill="#fff"/>
      </g>
    </g>
  </g>
</svg>
