<svg xmlns="http://www.w3.org/2000/svg" width="180.773" height="184.703" viewBox="0 0 180.773 184.703">
  <g id="rejected-img" transform="translate(-2440.668 -191.996)">
    <g id="Group_4072" data-name="Group 4072" transform="translate(2440.668 231.909)">
      <path id="Path_27705" data-name="Path 27705" d="M2778.409,864.3h-37.866L2721,830.089v29.878c0,4.672,3.408,8.41,7.538,8.41h49.871a1.444,1.444,0,0,0,1.526-1.367v-1.338A1.451,1.451,0,0,0,2778.409,864.3Z" transform="translate(-2654.736 -726.914)" fill="#99b9ff"/>
      <g id="Group_4061" data-name="Group 4061" transform="translate(71.478 113.581)">
        <path id="Path_27706" data-name="Path 27706" d="M2745.5,877.5v16.943a6.131,6.131,0,0,0,6.157,6.178h32.6V877.5Z" transform="translate(-2745.16 -877.16)" fill="#fff"/>
        <path id="Path_27707" data-name="Path 27707" d="M2783.442,899.8H2750.5a6.438,6.438,0,0,1-6.5-6.518V876h39.442ZM2744.68,876.68v16.6a5.765,5.765,0,0,0,5.817,5.838h32.264V876.68Z" transform="translate(-2744 -876)"/>
      </g>
      <g id="Group_4063" data-name="Group 4063" transform="translate(0 9.384)">
        <path id="Path_27708" data-name="Path 27708" d="M2603.082,523.738l-158.975.346a2.764,2.764,0,0,1-2.74-2.415L2428.7,422.7a4.062,4.062,0,0,1,3.87-4.682l156.919.142Z" transform="translate(-2428.668 -417.637)" fill="#99b9ff"/>
        <g id="Group_4062" data-name="Group 4062" transform="translate(6.172)">
          <path id="Path_27709" data-name="Path 27709" d="M2628.552,523.457h-155.8a2.767,2.767,0,0,1-2.74-2.422l-12.583-98.075a4.546,4.546,0,0,1,4.492-5.138h153.79a2.767,2.767,0,0,1,2.739,2.422l12.841,100.079A2.773,2.773,0,0,1,2628.552,523.457Z" transform="translate(-2457.052 -417.482)" fill="#fff"/>
          <path id="Path_27710" data-name="Path 27710" d="M2627.395,522.637H2471.6a3.115,3.115,0,0,1-3.077-2.719l-12.583-98.075a4.912,4.912,0,0,1,1.182-3.87,4.862,4.862,0,0,1,3.647-1.652h153.79a3.115,3.115,0,0,1,3.077,2.719l12.841,100.079a3.113,3.113,0,0,1-3.077,3.517ZM2460.764,417a4.179,4.179,0,0,0-3.136,1.421,4.229,4.229,0,0,0-1.018,3.334l12.583,98.075a2.434,2.434,0,0,0,2.4,2.126h155.8a2.416,2.416,0,0,0,1.813-.822,2.449,2.449,0,0,0,.589-1.929l-12.841-100.079a2.433,2.433,0,0,0-2.4-2.126Z" transform="translate(-2455.895 -416.322)"/>
        </g>
      </g>
      <g id="Group_4071" data-name="Group 4071" transform="translate(11.56 0)">
        <g id="Group_4069" data-name="Group 4069" transform="translate(1.731 0.34)">
          <g id="Group_4066" data-name="Group 4066" transform="translate(0 0)">
            <g id="Group_4064" data-name="Group 4064">
              <path id="Path_27711" data-name="Path 27711" d="M2495,376.424h136.45a6.349,6.349,0,0,1,6.12,5.472l11.51,94.38a4.774,4.774,0,0,1-4.809,5.531H2507.058a6.339,6.339,0,0,1-6.115-5.531l-10.768-94.38A4.778,4.778,0,0,1,2495,376.424Z" transform="translate(-2490.139 -376.424)" fill="#e7efff"/>
            </g>
            <path id="Path_27712" data-name="Path 27712" d="M2637.3,385.382l.609-3.391a6.383,6.383,0,0,0-6.213-5.381h-136.45a4.743,4.743,0,0,0-4.864,5.381l.32,4.174Z" transform="translate(-2490.302 -376.568)" fill="#99b9ff"/>
            <g id="Group_4065" data-name="Group 4065" transform="translate(5.137 3.684)">
              <path id="Path_27713" data-name="Path 27713" d="M2516.337,394.958a1.54,1.54,0,0,1-1.56,1.763,2.029,2.029,0,0,1-1.963-1.763,1.54,1.54,0,0,1,1.56-1.762A2.029,2.029,0,0,1,2516.337,394.958Z" transform="translate(-2512.802 -393.079)" fill="#caddff"/>
              <path id="Path_27714" data-name="Path 27714" d="M2541.15,394.44a1.54,1.54,0,0,1-1.56,1.763,2.03,2.03,0,0,1-1.964-1.763,1.54,1.54,0,0,1,1.56-1.762A2.029,2.029,0,0,1,2541.15,394.44Z" transform="translate(-2531.99 -392.678)" fill="#caddff"/>
              <path id="Path_27715" data-name="Path 27715" d="M2568.214,395.476a1.539,1.539,0,0,1-1.559,1.763,2.031,2.031,0,0,1-1.965-1.763,1.54,1.54,0,0,1,1.559-1.762A2.031,2.031,0,0,1,2568.214,395.476Z" transform="translate(-2552.919 -393.479)" fill="#caddff"/>
            </g>
          </g>
        </g>
        <g id="Group_4070" data-name="Group 4070">
          <path id="Path_27722" data-name="Path 27722" d="M2619.347,480.987h-113.23a6.7,6.7,0,0,1-6.452-5.833l-10.769-94.38a5.247,5.247,0,0,1,1.257-4.154,5.154,5.154,0,0,1,3.91-1.7h136.45a6.706,6.706,0,0,1,6.458,5.771l3.743,30.691a.34.34,0,0,1-.675.083l-3.743-30.691a6.008,6.008,0,0,0-5.783-5.173h-136.45a4.481,4.481,0,0,0-3.4,1.47,4.574,4.574,0,0,0-1.089,3.624l10.768,94.38a6,6,0,0,0,5.777,5.229h113.23a.34.34,0,1,1,0,.68Z" transform="translate(-2488.857 -374.924)" fill="#5479f7"/>
        </g>
      </g>
      <path id="Path_27723" data-name="Path 27723" d="M2808.719,982.987H2760.84a.34.34,0,1,1,0-.68h47.879a1.1,1.1,0,0,0,1.082-1.13v-1.339a1.124,1.124,0,0,0-1.082-1.158h-13.878a.34.34,0,1,1,0-.68h13.878a1.8,1.8,0,0,1,1.762,1.838v1.339A1.789,1.789,0,0,1,2808.719,982.987Z" transform="translate(-2685.282 -841.298)"/>
    </g>
    <g id="Group_4086" data-name="Group 4086" transform="translate(2569.938 271.193)">
      <path id="Path_27729" data-name="Path 27729" d="M3193.535,616.913c5.364,1.509,12.269,7.315,12.269,17.85,0,7.59-11.179,14.018-11.179,14.018l-1.844-4.526s6.162-4.563,5.867-9.89c-.237-4.271-7.124-5.6-7.124-5.6Z" transform="translate(-3158.265 -602.211)" fill="#2fbf71"/>
      <g id="Group_4080" data-name="Group 4080" transform="translate(9.333 40.6)">
        <rect id="Rectangle_2426" data-name="Rectangle 2426" width="3.855" height="4.526" transform="translate(19.819 56.154)" fill="#5479f7"/>
        <rect id="Rectangle_2427" data-name="Rectangle 2427" width="3.855" height="4.526" transform="translate(8.623 56.323) rotate(-13.282)" fill="#5479f7"/>
        <path id="Path_27730" data-name="Path 27730" d="M3112.831,731.165s1.151,9.1.268,12.636-2.949,36.192-2.949,45.027h-5.2l-2.347-41.739-7.251,15.144a6.483,6.483,0,0,0-.383,3.9l4.282,22.7-4.861.335-8.126-24.922a7.234,7.234,0,0,1-.078-3.8l6.591-26.363Z" transform="translate(-3085.972 -731.165)"/>
        <path id="Path_27731" data-name="Path 27731" d="M3159.3,785.092a.34.34,0,0,1-.265-.553l2.682-3.353a.34.34,0,0,1,.531.425l-2.682,3.353A.34.34,0,0,1,3159.3,785.092Z" transform="translate(-3142.419 -769.749)" fill="#fff"/>
        <g id="Group_4077" data-name="Group 4077" transform="translate(18.368 59.335)">
          <g id="Group_4075" data-name="Group 4075">
            <path id="Path_27732" data-name="Path 27732" d="M3173.721,994.425H3169.2l-.671,3.417a1.047,1.047,0,0,0,.984,1.277h3.9a1.047,1.047,0,0,0,.983-1.277Z" transform="translate(-3168.162 -994.085)" fill="#fff"/>
            <path id="Path_27733" data-name="Path 27733" d="M3172.248,998.3h-3.9a1.321,1.321,0,0,1-1.021-.489,1.434,1.434,0,0,1-.3-1.194l.671-3.416a.34.34,0,0,1,.333-.275h4.525a.34.34,0,0,1,.334.275l.671,3.416a1.436,1.436,0,0,1-.3,1.194A1.32,1.32,0,0,1,3172.248,998.3Zm-3.934-4.693-.618,3.141a.759.759,0,0,0,.155.631.636.636,0,0,0,.5.241h3.9a.633.633,0,0,0,.495-.241.76.76,0,0,0,.155-.631l-.618-3.141Z" transform="translate(-3167.002 -992.926)"/>
          </g>
          <g id="Group_4076" data-name="Group 4076" transform="translate(0.525 3.604)">
            <path id="Path_27734" data-name="Path 27734" d="M3170.818,1010.325h0Z" transform="translate(-3170.478 -1009.985)" fill="#fff"/>
            <path id="Path_27735" data-name="Path 27735" d="M3174.351,1009.505h-4.694a.34.34,0,0,1,0-.68h4.694a.34.34,0,0,1,0,.68Z" transform="translate(-3169.317 -1008.825)"/>
          </g>
        </g>
        <g id="Group_4078" data-name="Group 4078" transform="translate(4.521 58.329)">
          <path id="Path_27736" data-name="Path 27736" d="M3116.094,989.989l1.239,4.113a1.112,1.112,0,0,1-.862,1.494l-8.514.288c-.527.018-.737-.8-.293-1.133a26.391,26.391,0,0,0,3.736-3.173,1.4,1.4,0,0,1,2.346-.2A3,3,0,0,1,3116.094,989.989Z" transform="translate(-3107.083 -989.649)" fill="#fff"/>
          <path id="Path_27737" data-name="Path 27737" d="M3106.777,995.064a.852.852,0,0,1-.8-.6,1,1,0,0,1,.316-1.144,24.415,24.415,0,0,0,3.666-3.1,1.9,1.9,0,0,1,1.45-.9,1.732,1.732,0,0,1,1.12.4,3.164,3.164,0,0,1,2.4-1.226.34.34,0,0,1,.325.242l1.24,4.113a1.613,1.613,0,0,1-.22,1.4,1.233,1.233,0,0,1-.956.534l-8.514.288Zm4.683-5.068h-.029a1.279,1.279,0,0,0-.921.623,23.719,23.719,0,0,1-3.8,3.243.333.333,0,0,0-.084.374c.016.045.062.147.155.147h0l8.514-.288a.562.562,0,0,0,.427-.251.942.942,0,0,0,.121-.805l-1.162-3.857a2.773,2.773,0,0,0-1.808,1.212.34.34,0,0,1-.55.043A1.331,1.331,0,0,0,3111.459,990Z" transform="translate(-3105.917 -988.488)"/>
        </g>
        <g id="Group_4079" data-name="Group 4079" transform="translate(5.985 62.603)">
          <path id="Path_27738" data-name="Path 27738" d="M3113.877,1009.181l7.71-.335Z" transform="translate(-3113.537 -1008.505)" fill="#fff"/>
          <path id="Path_27739" data-name="Path 27739" d="M3112.715,1008.36a.34.34,0,0,1-.015-.68l7.711-.335a.334.334,0,0,1,.354.325.34.34,0,0,1-.325.355l-7.711.335Z" transform="translate(-3112.376 -1007.344)"/>
        </g>
      </g>
      <g id="Group_4082" data-name="Group 4082" transform="translate(19.704 0.136)">
        <g id="Group_4081" data-name="Group 4081" transform="translate(0 2.654)">
          <path id="Path_27740" data-name="Path 27740" d="M3140.571,575.086l4.191,2.849-11.54-.552,3.326-2.13.448-2.062c-.59-.088-1.4-.147-1.661-.469-.456-.568-.25-2.535-.25-2.535l-.5-.393a.211.211,0,0,1-.084-.3c.424-.677.825-.9,1.013-1.585a7.037,7.037,0,0,1,.835-2.042l4.389-.006.025,3.289a.815.815,0,0,1,1.1.153c.31.428-.376,1.856-.934,1.856Z" transform="translate(-3132.882 -565.521)" fill="#fff"/>
          <path id="Path_27741" data-name="Path 27741" d="M3143.6,577.116h-.016l-11.54-.552a.34.34,0,0,1-.167-.626l3.207-2.053.34-1.565a2.377,2.377,0,0,1-1.516-.542,4.661,4.661,0,0,1-.341-2.6l-.334-.263a.552.552,0,0,1-.181-.766,5.986,5.986,0,0,1,.476-.644,2.1,2.1,0,0,0,.5-.849c.025-.091.044-.167.062-.235a7.754,7.754,0,0,1,.8-1.869.34.34,0,0,1,.3-.188l4.389-.006h0a.34.34,0,0,1,.34.338l.021,2.812a1.04,1.04,0,0,1,1.039.432c.338.467-.013,1.245-.129,1.473a1.919,1.919,0,0,1-.762.85l-.319,3.491,4.025,2.737a.34.34,0,0,1-.191.621Zm-10.458-1.181,9.269.444-3.193-2.171a.341.341,0,0,1-.147-.312l.359-3.927a.34.34,0,0,1,.339-.309c.047,0,.239-.124.44-.487a1.31,1.31,0,0,0,.217-.832c-.229-.316-.6-.091-.639-.065a.34.34,0,0,1-.525-.283l-.022-2.951-3.841.005a6.318,6.318,0,0,0-.654,1.548c-.018.07-.038.149-.064.243a2.734,2.734,0,0,1-.626,1.1,5.825,5.825,0,0,0-.362.474l.441.347a.341.341,0,0,1,.128.3,4.771,4.771,0,0,0,.177,2.287,2.738,2.738,0,0,0,1.168.307c.1.013.189.025.277.039a.34.34,0,0,1,.282.408l-.448,2.062a.341.341,0,0,1-.149.214Z" transform="translate(-3131.721 -564.361)"/>
        </g>
        <path id="Path_27742" data-name="Path 27742" d="M3146.024,562.415a2.213,2.213,0,0,1-1.913-.522c-.614-.487-1.117-1.356-.87-1.739.135-.211.378-.1.7-.348.468-.371.6-1.175.348-1.391-.207-.177-.531.162-.87,0-.414-.2-.2-.833-.521-1.391-.523-.913-1.741-.362-2.678-1.334a2.147,2.147,0,0,1-.528-2.29,1.22,1.22,0,0,1,.48-.452c1.474-.811,1.694.3,3.129.312,2.952.025,4.4.616,4.934,1.84a4.539,4.539,0,0,1-.294,2.794,9.448,9.448,0,0,0-.348,1.217c-.138.657-.1.826-.174,1.217C3147.36,560.6,3147.067,562.068,3146.024,562.415Z" transform="translate(-3137.762 -552.651)"/>
      </g>
      <g id="Group_4085" data-name="Group 4085" transform="translate(0 0)">
        <g id="Group_4083" data-name="Group 4083" transform="translate(20.361)">
          <path id="Path_27743" data-name="Path 27743" d="M3136.773,557.961s1.3.482,1.587-.17-.17-1.19.539-1.7,2.408-1.048,1.785-1.813-2.522-1.077-3.06-.17-.935,2.465-1.3,2.493S3136.088,557.8,3136.773,557.961Z" transform="translate(-3135.78 -553.213)" fill="#fff"/>
          <path id="Path_27744" data-name="Path 27744" d="M3136.51,557.312a3.219,3.219,0,0,1-1-.186,1.361,1.361,0,0,1-.891-1.4.6.6,0,0,1,.448-.612,5.475,5.475,0,0,0,.485-1.013,10.618,10.618,0,0,1,.614-1.324,1.612,1.612,0,0,1,1.331-.714,2.854,2.854,0,0,1,2.285.843.814.814,0,0,1,.2.692c-.107.539-.766.894-1.4,1.237a6.358,6.358,0,0,0-.643.375c-.291.21-.29.377-.289.71a2,2,0,0,1-.137.85A1,1,0,0,1,3136.51,557.312Zm-.779-.831c.41.15,1.058.241,1.157.013a1.351,1.351,0,0,0,.08-.576,1.329,1.329,0,0,1,.572-1.265,6.823,6.823,0,0,1,.718-.422c.379-.2,1.015-.546,1.059-.77a.181.181,0,0,0-.057-.13,2.234,2.234,0,0,0-1.708-.594,1.006,1.006,0,0,0-.8.383,10.063,10.063,0,0,0-.57,1.235c-.322.785-.529,1.288-.882,1.4a.845.845,0,0,0,.087.43.5.5,0,0,0,.3.282A.321.321,0,0,1,3135.731,556.481Z" transform="translate(-3134.621 -552.052)"/>
        </g>
        <g id="Group_4084" data-name="Group 4084" transform="translate(0 1.537)">
          <path id="Path_27745" data-name="Path 27745" d="M3106.889,610.24s10.057-2.85,19.612.67c.736,4.236,1.24,7.894,1.593,10.791.62,5.1.234,3.471,1.006,10.916.48,4.627.607,5.051.167,5.867-2.216,4.111-11.15,3.887-14.583,3.017-.244-.062-1.252-.328-2.9-.744-1.888-.476-3.439-.853-4.474-1.1a4.272,4.272,0,0,1-1.844-1.509c-1.182-1.8-.392-4.14,0-5.7,1.006-4.006-.315-4.092,0-11.4A63.282,63.282,0,0,1,3106.889,610.24Z" transform="translate(-3091.23 -597.745)" fill="#2fbf71"/>
          <path id="Path_27746" data-name="Path 27746" d="M3193.881,732.53a.34.34,0,0,1-.049-.677c.182-.027,4.457-.707,3.891-4.758a.34.34,0,0,1,.674-.094c.659,4.724-4.415,5.517-4.466,5.525A.343.343,0,0,1,3193.881,732.53Z" transform="translate(-3159.825 -688.655)" fill="#fff"/>
          <path id="Path_27747" data-name="Path 27747" d="M3126.215,698.745a.34.34,0,0,1-.239-.1c-4.009-3.952-4.836-9.932-4.869-10.185a.34.34,0,0,1,.674-.089c.007.06.833,6,4.672,9.789a.34.34,0,0,1-.239.582Z" transform="translate(-3103.807 -658.782)" fill="#fff"/>
          <path id="Path_27748" data-name="Path 27748" d="M3056.886,565.934a.384.384,0,0,1,.311-.364l9.936-3.1-.862-2.048s-13.454-4.272-19.766,1.177,6.376,18.912,13.54,22.03l6.559-13.167-9.435-4.149A.384.384,0,0,1,3056.886,565.934Z" transform="translate(-3044.796 -558.835)" fill="#2fbf71"/>
        </g>
      </g>
    </g>
    <g id="Group_4100" data-name="Group 4100" transform="translate(2468.383 191.996)">
      <g id="Group_4097" data-name="Group 4097" transform="translate(29.022)">
        <g id="Group_4094" data-name="Group 4094">
          <path id="Path_27756" data-name="Path 27756" d="M2814.2,230.333a.453.453,0,0,1-.175-.035c-13.445-5.6-28.954-7.315-44.852-4.947a.453.453,0,0,1-.134-.9c16.06-2.392,31.737-.661,45.334,5.007a.453.453,0,0,1-.174.872Z" transform="translate(-2758.715 -218.706)"/>
          <path id="Path_27757" data-name="Path 27757" d="M2786.767,212.356a.446.446,0,0,1-.209-.051c-1.154-.6-2.352-1.183-3.56-1.729-16.914-7.641-37.38-9.087-57.628-4.069a.453.453,0,1,1-.219-.88c20.446-5.066,41.122-3.6,58.22,4.123,1.223.552,2.436,1.142,3.605,1.751a.453.453,0,0,1-.21.855Z" transform="translate(-2724.807 -202.664)"/>
        </g>
        <g id="Group_4095" data-name="Group 4095" transform="translate(75.901 21.19)">
          <path id="Path_27758" data-name="Path 27758" d="M3059.993,313.549a.34.34,0,0,1-.016-.68l1.633-.079a.34.34,0,0,1,.033.679l-1.633.079Z" transform="translate(-3059.653 -309.018)"/>
          <path id="Path_27759" data-name="Path 27759" d="M3085.211,312.333a.34.34,0,0,1-.016-.68l1.633-.079a.343.343,0,0,1,.355.323.339.339,0,0,1-.323.356l-1.633.079Z" transform="translate(-3079.155 -308.078)"/>
          <path id="Path_27760" data-name="Path 27760" d="M3076.779,323.676a.34.34,0,0,1-.339-.321l-.088-1.633a.34.34,0,0,1,.679-.037l.088,1.633a.34.34,0,0,1-.321.358Z" transform="translate(-3072.566 -315.648)"/>
          <path id="Path_27761" data-name="Path 27761" d="M3075.417,298.46a.34.34,0,0,1-.339-.322l-.088-1.633a.339.339,0,0,1,.321-.358.343.343,0,0,1,.358.321l.088,1.633a.34.34,0,0,1-.321.358Z" transform="translate(-3071.513 -296.147)"/>
        </g>
        <g id="Group_4096" data-name="Group 4096" transform="translate(63.516 160.803)">
          <path id="Path_27762" data-name="Path 27762" d="M3006.515,917.909a.341.341,0,0,1-.179-.051l-1.162-.719a.34.34,0,1,1,.358-.578l1.163.719a.34.34,0,0,1-.179.629Z" transform="translate(-3005.013 -915.502)"/>
          <path id="Path_27763" data-name="Path 27763" d="M3024.467,929.013a.339.339,0,0,1-.179-.051l-1.163-.719a.34.34,0,0,1,.358-.578l1.163.719a.34.34,0,0,1-.179.629Z" transform="translate(-3018.895 -924.089)"/>
          <path id="Path_27764" data-name="Path 27764" d="M3009.818,931.931a.34.34,0,0,1-.29-.517l.713-1.167a.34.34,0,0,1,.581.355l-.713,1.167A.34.34,0,0,1,3009.818,931.931Z" transform="translate(-3008.466 -925.999)"/>
          <path id="Path_27765" data-name="Path 27765" d="M3020.822,913.911a.34.34,0,0,1-.29-.517l.713-1.167a.34.34,0,1,1,.581.355l-.713,1.167A.34.34,0,0,1,3020.822,913.911Z" transform="translate(-3016.976 -912.064)"/>
        </g>
      </g>
      <g id="Group_4099" data-name="Group 4099" transform="translate(0 3.077)">
        <g id="Group_4098" data-name="Group 4098" transform="translate(0 12.824)">
          <path id="Path_27766" data-name="Path 27766" d="M2617.962,288.689a.337.337,0,0,1-.1-.015l-1.268-.4a.34.34,0,1,1,.2-.649l1.268.4a.34.34,0,0,1-.1.664Z" transform="translate(-2611.916 -284.257)"/>
          <path id="Path_27767" data-name="Path 27767" d="M2598.382,282.562a.335.335,0,0,1-.1-.015l-1.268-.4a.34.34,0,1,1,.2-.649l1.268.4a.34.34,0,0,1-.1.664Z" transform="translate(-2596.774 -279.519)"/>
          <path id="Path_27768" data-name="Path 27768" d="M2611.848,274.764a.35.35,0,0,1-.1-.015.34.34,0,0,1-.226-.425l.389-1.271a.34.34,0,0,1,.65.2l-.389,1.27A.34.34,0,0,1,2611.848,274.764Z" transform="translate(-2608.167 -272.814)"/>
          <path id="Path_27769" data-name="Path 27769" d="M2605.838,294.381a.339.339,0,0,1-.325-.439l.389-1.271a.34.34,0,1,1,.65.2l-.389,1.271A.34.34,0,0,1,2605.838,294.381Z" transform="translate(-2603.52 -287.984)"/>
        </g>
        <path id="Path_27770" data-name="Path 27770" d="M2699.5,219.785a1.776,1.776,0,1,1,.28-.022A1.76,1.76,0,0,1,2699.5,219.785Zm0-2.866a1.093,1.093,0,0,0-1.08,1.263,1.093,1.093,0,1,0,1.08-1.263Z" transform="translate(-2674.851 -216.239)"/>
      </g>
    </g>
    <circle id="Ellipse_1140" data-name="Ellipse 1140" cx="25.544" cy="25.544" r="25.544" transform="translate(2505.874 257.168)" fill="#ff8e1d"/>
    <text id="_" data-name="!" transform="translate(2517.13 298.168)" fill="#fff" font-size="49" font-family="PrestigeEliteStd-Bd, Prestige Elite Std"><tspan x="0" y="0">!</tspan></text>
  </g>
</svg>
