<svg xmlns="http://www.w3.org/2000/svg" width="188.586" height="188" viewBox="0 0 188.586 188">
  <g id="under-review-img" transform="translate(-242.43 -189.911)">
    <path id="Path_27771" data-name="Path 27771" d="M244.582,261.545c9.45-42.647,51.112-67.775,86.9-71.079,29.651-2.737,66.1,4.174,82.7,31.644,10.176,16.831-2.377,24.243,4.663,61.5,6.093,32.243,16.76,43.786,10,60.219-5.527,13.435-18.444,19.79-26.7,23.851-32.542,16.009-91.7,14.344-127.289-14.859C266.531,345.983,233.816,310.133,244.582,261.545Z" transform="translate(0)" fill="#caddff" opacity="0.18"/>
    <g id="Group_4124" data-name="Group 4124" transform="translate(276.78 215.405)">
      <g id="Group_4103" data-name="Group 4103" transform="translate(0 0)">
        <g id="Group_4102" data-name="Group 4102">
          <path id="Path_27774" data-name="Path 27774" d="M497.175,463.919H420.511a5.15,5.15,0,0,1-5.227-5.963l18.877-149.128a6.982,6.982,0,0,1,6.737-5.963l72.816-.85c8.358,0,9.492,3.52,9.075,6.813L503.911,457.956A6.982,6.982,0,0,1,497.175,463.919Z" transform="translate(-410.281 -302.011)" fill="#99b9ff"/>
          <path id="Path_27775" data-name="Path 27775" d="M476.893,465.066H400.229A5.16,5.16,0,0,1,395,459.084l18.877-149.6a6.989,6.989,0,0,1,6.737-5.982h76.664a5.16,5.16,0,0,1,5.227,5.982l-18.877,149.6A6.989,6.989,0,0,1,476.893,465.066Z" transform="translate(-394.612 -303.158)" fill="#fff"/>
          <path id="Path_27776" data-name="Path 27776" d="M414.335,498.57,432.36,355.724a1.613,1.613,0,0,1,1.555-1.381h77.076a1.191,1.191,0,0,1,1.207,1.381L494.174,498.57a1.614,1.614,0,0,1-1.555,1.381H415.542A1.191,1.191,0,0,1,414.335,498.57Z" transform="translate(-409.577 -342.437)" fill="#caddff"/>
          <path id="Path_27777" data-name="Path 27777" d="M491.458,499.133H414.382a1.544,1.544,0,0,1-1.178-.516,1.563,1.563,0,0,1-.367-1.249l18.025-142.846a1.966,1.966,0,0,1,1.894-1.679h77.076a1.544,1.544,0,0,1,1.178.516,1.564,1.564,0,0,1,.367,1.249L493.352,497.454A1.966,1.966,0,0,1,491.458,499.133Zm-77.944-1.679a.89.89,0,0,0,.2.712.871.871,0,0,0,.666.285h77.076a1.265,1.265,0,0,0,1.217-1.082L510.7,354.522a.889.889,0,0,0-.2-.712.87.87,0,0,0-.666-.285H432.755a1.265,1.265,0,0,0-1.217,1.082Z" transform="translate(-408.417 -341.279)"/>
          <path id="Path_27778" data-name="Path 27778" d="M665.376,321.729a1.933,1.933,0,0,1-1.958-2.241,2.618,2.618,0,0,1,2.524-2.241,1.933,1.933,0,0,1,1.958,2.241A2.618,2.618,0,0,1,665.376,321.729Z" transform="translate(-602.001 -313.779)" fill="#caddff"/>
          <path id="Path_27779" data-name="Path 27779" d="M475.733,464.248H399.068a5.564,5.564,0,0,1-4.25-1.851,5.646,5.646,0,0,1-1.316-4.515l2.784-22.065a.341.341,0,0,1,.677.086l-2.784,22.065a4.973,4.973,0,0,0,1.15,3.978,4.892,4.892,0,0,0,3.738,1.62h76.664a6.647,6.647,0,0,0,6.4-5.683l18.877-149.6a4.974,4.974,0,0,0-1.15-3.978,4.891,4.891,0,0,0-3.738-1.62H453.7a.341.341,0,1,1,0-.682h42.421a5.564,5.564,0,0,1,4.25,1.851,5.646,5.646,0,0,1,1.316,4.515l-18.877,149.6A7.348,7.348,0,0,1,475.733,464.248Z" transform="translate(-393.452 -301.999)"/>
          <path id="Path_27780" data-name="Path 27780" d="M447.285,473.634l-.043,0a.341.341,0,0,1-.3-.381l3.375-26.749a.341.341,0,1,1,.677.085l-3.375,26.749A.341.341,0,0,1,447.285,473.634Z" transform="translate(-434.777 -413.403)"/>
        </g>
      </g>
      <g id="Group_4115" data-name="Group 4115" transform="translate(10.178 16.604)">
        <g id="Group_4104" data-name="Group 4104" transform="translate(53.413)">
          <path id="Path_27781" data-name="Path 27781" d="M705.482,379.879A2.541,2.541,0,0,0,702.873,377H680.778a3.373,3.373,0,0,0-3.286,2.879L674,409.071a2.585,2.585,0,0,0,2.608,2.956h22.224a3.423,3.423,0,0,0,3.293-2.956Z" transform="translate(-673.764 -376.545)" fill="#fff"/>
          <path id="Path_27782" data-name="Path 27782" d="M698.23,410.709H676.007a2.926,2.926,0,0,1-2.947-3.337l3.492-29.191A3.728,3.728,0,0,1,680.176,375h22.095a2.952,2.952,0,0,1,2.242.974,2.915,2.915,0,0,1,.706,2.308l-3.357,29.17A3.758,3.758,0,0,1,698.23,410.709Zm-18.054-35.027a3.028,3.028,0,0,0-2.947,2.58l-3.492,29.191a2.294,2.294,0,0,0,.545,1.824,2.265,2.265,0,0,0,1.724.749H698.23a3.1,3.1,0,0,0,2.954-2.653l3.357-29.17a2.242,2.242,0,0,0-.537-1.776,2.28,2.28,0,0,0-1.732-.745Z" transform="translate(-673.036 -375)" fill="#99b9ff"/>
        </g>
        <g id="Group_4105" data-name="Group 4105" transform="translate(5.938 43.215)">
          <path id="Path_27783" data-name="Path 27783" d="M539.228,569.955A2.6,2.6,0,0,0,536.6,567H472.9a3.474,3.474,0,0,0-3.336,2.955l-4.3,34.009a2.643,2.643,0,0,0,2.6,3.067H532a3.524,3.524,0,0,0,3.323-3.067Z" transform="translate(-465.027 -566.545)" fill="#fff"/>
          <path id="Path_27784" data-name="Path 27784" d="M531.41,605.713H467.273a2.894,2.894,0,0,1-2.2-.983,3.13,3.13,0,0,1-.732-2.468l4.3-34.009A3.813,3.813,0,0,1,472.31,565h63.7a2.939,2.939,0,0,1,2.226.981,3.07,3.07,0,0,1,.737,2.4l-3.906,33.986A3.823,3.823,0,0,1,531.41,605.713Zm-59.1-40.031a3.153,3.153,0,0,0-3,2.657l-4.3,34.009a2.446,2.446,0,0,0,.567,1.931,2.22,2.22,0,0,0,1.692.752H531.41a3.165,3.165,0,0,0,2.984-2.745L538.3,568.3a2.386,2.386,0,0,0-.568-1.865,2.264,2.264,0,0,0-1.717-.753Z" transform="translate(-464.311 -565)" fill="#99b9ff"/>
        </g>
        <g id="Group_4106" data-name="Group 4106" transform="translate(0 89.842)">
          <path id="Path_27785" data-name="Path 27785" d="M513.671,775.014A2.637,2.637,0,0,0,511.03,772H446.841a3.528,3.528,0,0,0-3.366,3.014l-4.331,34.215a2.609,2.609,0,0,0,2.62,3.029h64.618a3.487,3.487,0,0,0,3.35-3.029Z" transform="translate(-438.911 -771.545)" fill="#fff"/>
          <path id="Path_27786" data-name="Path 27786" d="M505.8,810.941H441.188a2.946,2.946,0,0,1-2.248-.987,3.036,3.036,0,0,1-.711-2.427l4.329-34.215a3.861,3.861,0,0,1,3.7-3.312h64.187a2.959,2.959,0,0,1,2.244.984,3.085,3.085,0,0,1,.736,2.41l-3.939,34.241A3.815,3.815,0,0,1,505.8,810.941Zm-59.54-40.258a3.2,3.2,0,0,0-3.028,2.715l-4.329,34.215a2.361,2.361,0,0,0,.546,1.89,2.272,2.272,0,0,0,1.736.756H505.8a3.115,3.115,0,0,0,3.01-2.7l3.939-34.241a2.37,2.37,0,0,0-.567-1.878,2.285,2.285,0,0,0-1.735-.756Z" transform="translate(-438.202 -770)" fill="#99b9ff"/>
        </g>
        <g id="Group_4112" data-name="Group 4112" transform="translate(13.064 50.756)">
          <g id="Group_4107" data-name="Group 4107" transform="translate(2.946)">
            <path id="Path_27787" data-name="Path 27787" d="M542.722,599.3a1.335,1.335,0,0,1-1.3,1.144H509.615A.994.994,0,0,1,508.6,599.3a1.344,1.344,0,0,1,1.3-1.143h31.8A1,1,0,0,1,542.722,599.3Z" transform="translate(-508.591 -598.154)" fill="#99b9ff"/>
            <path id="Path_27788" data-name="Path 27788" d="M675.923,599.988a1.245,1.245,0,0,1-1.292,1.045h-7.584a.927.927,0,0,1-1.024-1.045,1.247,1.247,0,0,1,1.293-1.044H674.9A.928.928,0,0,1,675.923,599.988Z" transform="translate(-630.209 -598.764)" fill="#99b9ff"/>
            <path id="Path_27789" data-name="Path 27789" d="M726.861,599.988a1.243,1.243,0,0,1-1.291,1.045h-7.584a.928.928,0,0,1-1.026-1.045,1.245,1.245,0,0,1,1.292-1.044h7.582A.93.93,0,0,1,726.861,599.988Z" transform="translate(-669.561 -598.764)" fill="#99b9ff"/>
          </g>
          <g id="Group_4108" data-name="Group 4108" transform="translate(2.21 5.82)">
            <path id="Path_27790" data-name="Path 27790" d="M607.346,624.913a1,1,0,0,0,1.02,1.146h31.844a1.33,1.33,0,0,0,1.293-1.146,1.006,1.006,0,0,0-1.027-1.146H608.645A1.339,1.339,0,0,0,607.346,624.913Z" transform="translate(-584.142 -623.761)" fill="#99b9ff"/>
            <path id="Path_27791" data-name="Path 27791" d="M566.264,624.89a1,1,0,0,0-1.012-1.148h-7.588a1.354,1.354,0,0,0-1.31,1.148.994.994,0,0,0,1.009,1.15h7.594A1.351,1.351,0,0,0,566.264,624.89Z" transform="translate(-544.747 -623.742)" fill="#99b9ff"/>
            <path id="Path_27792" data-name="Path 27792" d="M515.276,624.89a.992.992,0,0,0-1.008-1.148H506.68a1.36,1.36,0,0,0-1.314,1.148.99.99,0,0,0,1.005,1.15h7.593A1.357,1.357,0,0,0,515.276,624.89Z" transform="translate(-505.356 -623.742)" fill="#99b9ff"/>
          </g>
          <g id="Group_4109" data-name="Group 4109" transform="translate(1.476 11.663)">
            <path id="Path_27793" data-name="Path 27793" d="M536.331,650.581a1.339,1.339,0,0,1-1.3,1.148H503.155a1,1,0,0,1-1.016-1.148,1.348,1.348,0,0,1,1.305-1.148h31.864A1,1,0,0,1,536.331,650.581Z" transform="translate(-502.129 -649.433)" fill="#99b9ff"/>
            <path id="Path_27794" data-name="Path 27794" d="M669.795,650.607a1.336,1.336,0,0,1-1.3,1.149h-7.6a1,1,0,0,1-1.023-1.149,1.338,1.338,0,0,1,1.3-1.149h7.6A1.006,1.006,0,0,1,669.795,650.607Z" transform="translate(-623.988 -649.452)" fill="#99b9ff"/>
            <path id="Path_27795" data-name="Path 27795" d="M720.843,650.607a1.332,1.332,0,0,1-1.294,1.149h-7.6a1.006,1.006,0,0,1-1.026-1.149,1.335,1.335,0,0,1,1.3-1.149h7.6A1.008,1.008,0,0,1,720.843,650.607Z" transform="translate(-663.426 -649.452)" fill="#99b9ff"/>
          </g>
          <g id="Group_4110" data-name="Group 4110" transform="translate(0.742 17.513)">
            <path id="Path_27796" data-name="Path 27796" d="M601.082,676.3a1,1,0,0,0,1.022,1.151h31.911a1.334,1.334,0,0,0,1.3-1.151,1.009,1.009,0,0,0-1.029-1.151h-31.9A1.343,1.343,0,0,0,601.082,676.3Z" transform="translate(-577.835 -675.152)" fill="#99b9ff"/>
            <path id="Path_27797" data-name="Path 27797" d="M559.931,676.322a1,1,0,0,0-1.019-1.149h-7.6A1.348,1.348,0,0,0,550,676.322a1,1,0,0,0,1.017,1.149h7.608A1.346,1.346,0,0,0,559.931,676.322Z" transform="translate(-538.372 -675.168)" fill="#99b9ff"/>
            <path id="Path_27798" data-name="Path 27798" d="M508.841,676.322a1,1,0,0,0-1.016-1.149h-7.6a1.352,1.352,0,0,0-1.31,1.149.994.994,0,0,0,1.014,1.149h7.608A1.35,1.35,0,0,0,508.841,676.322Z" transform="translate(-498.902 -675.168)" fill="#99b9ff"/>
          </g>
          <g id="Group_4111" data-name="Group 4111" transform="translate(0 23.367)">
            <path id="Path_27799" data-name="Path 27799" d="M529.912,702.078a1.343,1.343,0,0,1-1.3,1.153H496.667a1,1,0,0,1-1.018-1.153,1.353,1.353,0,0,1,1.308-1.153h31.931A1.006,1.006,0,0,1,529.912,702.078Z" transform="translate(-495.64 -700.917)" fill="#99b9ff"/>
            <path id="Path_27800" data-name="Path 27800" d="M663.685,702.038a1.338,1.338,0,0,1-1.3,1.149h-7.616a1,1,0,0,1-1.023-1.149,1.341,1.341,0,0,1,1.3-1.149h7.611A1,1,0,0,1,663.685,702.038Z" transform="translate(-617.778 -700.889)" fill="#99b9ff"/>
            <path id="Path_27801" data-name="Path 27801" d="M714.827,702.038a1.334,1.334,0,0,1-1.3,1.149h-7.616a1,1,0,0,1-1.026-1.149,1.336,1.336,0,0,1,1.3-1.149H713.8A1.007,1.007,0,0,1,714.827,702.038Z" transform="translate(-657.288 -700.889)" fill="#99b9ff"/>
          </g>
        </g>
        <g id="Group_4114" data-name="Group 4114" transform="translate(6.674 95.451)">
          <g id="Group_4113" data-name="Group 4113" transform="translate(31.003 4.704)">
            <path id="Path_27802" data-name="Path 27802" d="M706.5,838.987a2.284,2.284,0,0,1-2.211,1.979,1.726,1.726,0,0,1-1.75-1.979l2.532-21.682a2.272,2.272,0,0,1,2.2-1.963,1.717,1.717,0,0,1,1.744,1.963Z" transform="translate(-680.086 -815.342)" fill="#99b9ff"/>
            <path id="Path_27803" data-name="Path 27803" d="M607.825,875.346a2.3,2.3,0,0,1-2.218,1.979,1.719,1.719,0,0,1-1.742-1.979l1.323-10.971a2.289,2.289,0,0,1,2.214-1.97,1.714,1.714,0,0,1,1.74,1.97Z" transform="translate(-603.85 -851.701)" fill="#99b9ff"/>
            <path id="Path_27804" data-name="Path 27804" d="M640.718,863.46a2.292,2.292,0,0,1-2.216,1.979,1.721,1.721,0,0,1-1.745-1.979l1.727-14.473a2.283,2.283,0,0,1,2.209-1.968,1.715,1.715,0,0,1,1.741,1.968Z" transform="translate(-629.262 -839.814)" fill="#99b9ff"/>
            <path id="Path_27805" data-name="Path 27805" d="M673.611,851.587a2.288,2.288,0,0,1-2.213,1.979,1.724,1.724,0,0,1-1.747-1.979l2.121-17.97a2.278,2.278,0,0,1,2.206-1.966,1.716,1.716,0,0,1,1.743,1.966Z" transform="translate(-654.674 -827.942)" fill="#99b9ff"/>
          </g>
          <path id="Path_27806" data-name="Path 27806" d="M496.075,794.662H473.3a2.509,2.509,0,0,0-2.463,2.133l-3.278,26.057a1.911,1.911,0,0,0,1.924,2.214h22.892a2.591,2.591,0,0,0,2.469-2.237L498,796.814A1.874,1.874,0,0,0,496.075,794.662Z" transform="translate(-467.543 -794.662)" fill="#99b9ff"/>
        </g>
      </g>
      <g id="Group_4123" data-name="Group 4123" transform="translate(22.16 22.892)">
        <g id="Group_4116" data-name="Group 4116">
          <path id="Path_27807" data-name="Path 27807" d="M526.976,431.571H495.34a2.864,2.864,0,0,1-2.931-3.294l2.641-20.864a3.858,3.858,0,0,1,3.747-3.268h31.495a2.866,2.866,0,0,1,2.939,3.268l-2.51,20.864A3.853,3.853,0,0,1,526.976,431.571Z" transform="translate(-492.041 -403.804)" fill="#fff"/>
          <path id="Path_27808" data-name="Path 27808" d="M530.583,450.228l-9.627-11.982a2.113,2.113,0,0,0-2.946-.148l-.448.347a2.11,2.11,0,0,1-2.873-.079l-4.757-5.3a2.176,2.176,0,0,0-3,0L492.921,445.2l-.637,5.029a2.864,2.864,0,0,0,2.931,3.294h31.624A3.852,3.852,0,0,0,530.583,450.228Z" transform="translate(-491.945 -425.679)" fill="#99b9ff"/>
          <path id="Path_27809" data-name="Path 27809" d="M525.816,430.754H494.18a3.284,3.284,0,0,1-2.51-1.09,3.237,3.237,0,0,1-.76-2.588l2.641-20.864a4.214,4.214,0,0,1,4.085-3.567h31.494a3.3,3.3,0,0,1,2.51,1.087,3.224,3.224,0,0,1,.768,2.564l-2.51,20.864A4.207,4.207,0,0,1,525.816,430.754Zm-28.179-27.426a3.513,3.513,0,0,0-3.408,2.97l-2.641,20.864a2.563,2.563,0,0,0,.595,2.051,2.612,2.612,0,0,0,2,.859h31.636a3.507,3.507,0,0,0,3.406-2.994l2.51-20.864a2.551,2.551,0,0,0-.6-2.03,2.622,2.622,0,0,0-2-.857Z" transform="translate(-490.881 -402.645)" fill="#99b9ff"/>
          <path id="Path_27810" data-name="Path 27810" d="M627.266,425.815a3.3,3.3,0,0,1-3.213,2.818,2.466,2.466,0,0,1-2.527-2.818A3.3,3.3,0,0,1,624.738,423,2.466,2.466,0,0,1,627.266,425.815Z" transform="translate(-591.794 -418.37)" fill="#99b9ff"/>
        </g>
      </g>
    </g>
    <g id="Group_4133" data-name="Group 4133" transform="translate(250.953 267.661)">
      <g id="Group_4126" data-name="Group 4126" transform="translate(2.809 0)">
        <g id="Group_4125" data-name="Group 4125" transform="translate(0)">
          <circle id="Ellipse_1141" data-name="Ellipse 1141" cx="31.22" cy="31.22" r="31.22" transform="translate(0 44.152) rotate(-45)" fill="#fff"/>
          <path id="Path_27819" data-name="Path 27819" d="M379.072,650.269a31.572,31.572,0,1,1,25.813-13.313l-.278-.2.278.2a31.355,31.355,0,0,1-20.45,12.858A31.943,31.943,0,0,1,379.072,650.269Zm.11-62.438A30.855,30.855,0,1,0,397,593.511,30.862,30.862,0,0,0,379.182,587.831Z" transform="translate(-334.987 -574.547)"/>
        </g>
      </g>
      <g id="Group_4127" data-name="Group 4127" transform="translate(0 68.752)">
        <path id="Path_27820" data-name="Path 27820" d="M282.788,874.432a3.286,3.286,0,0,1-.78-4.582l24.345-34.331,5.362,3.8L287.37,873.652A3.286,3.286,0,0,1,282.788,874.432Z" transform="translate(-281.06 -835.178)" fill="#fff"/>
        <path id="Path_27821" data-name="Path 27821" d="M283.521,874.22a3.629,3.629,0,0,1-2.951-5.727l24.345-34.331a.341.341,0,0,1,.476-.081l5.362,3.8a.342.342,0,0,1,.081.476L286.488,872.69a3.6,3.6,0,0,1-2.35,1.478A3.68,3.68,0,0,1,283.521,874.22Zm21.752-39.385-24.147,34.053a2.945,2.945,0,1,0,4.805,3.407l24.147-34.053Z" transform="translate(-279.9 -834.018)"/>
      </g>
      <g id="Group_4128" data-name="Group 4128" transform="translate(12.718 85.861)">
        <path id="Path_27822" data-name="Path 27822" d="M337.317,913.635l2.052-2.894Z" transform="translate(-336.976 -910.4)" fill="#fff"/>
        <path id="Path_27823" data-name="Path 27823" d="M336.157,912.818a.341.341,0,0,1-.278-.539l2.052-2.894a.341.341,0,0,1,.557.395l-2.052,2.894A.341.341,0,0,1,336.157,912.818Z" transform="translate(-335.817 -909.241)"/>
      </g>
      <g id="Group_4129" data-name="Group 4129" transform="translate(1.594 92.58)">
        <path id="Path_27824" data-name="Path 27824" d="M293.788,950.413l-2.306,3.252a1.694,1.694,0,1,1-2.764-1.96l8.1-11.424Z" transform="translate(-288.065 -939.94)" fill="#fff"/>
        <path id="Path_27825" data-name="Path 27825" d="M288.939,953.561a2.035,2.035,0,0,1-1.658-3.212l8.1-11.424a.341.341,0,0,1,.557.395l-8.1,11.424a1.353,1.353,0,1,0,2.208,1.566l2.306-3.252a.341.341,0,1,1,.557.395L290.6,952.7A2.035,2.035,0,0,1,288.939,953.561Z" transform="translate(-286.907 -938.781)"/>
      </g>
      <g id="Group_4130" data-name="Group 4130" transform="translate(18.842 70.781)">
        <rect id="Rectangle_2428" data-name="Rectangle 2428" width="9.856" height="5.603" rx="2.801" transform="matrix(0.816, 0.578, -0.578, 0.816, 3.241, 0)" fill="#fff"/>
        <path id="Path_27826" data-name="Path 27826" d="M371.516,854.023a2.047,2.047,0,0,1-1.188-.38l-5.232-3.71a2.065,2.065,0,0,1-.489-2.875l1.25-1.762a2.065,2.065,0,0,1,2.875-.49l5.232,3.71a2.062,2.062,0,0,1,.489,2.875l-1.25,1.762a2.049,2.049,0,0,1-1.336.84A2.069,2.069,0,0,1,371.516,854.023Zm-3.976-8.915a1.38,1.38,0,0,0-1.128.581l-1.25,1.762a1.382,1.382,0,0,0,.328,1.924l5.232,3.71a1.38,1.38,0,0,0,1.924-.327L373.9,851a1.38,1.38,0,0,0-.328-1.924l-5.232-3.71A1.373,1.373,0,0,0,367.54,845.109Z" transform="translate(-363.889 -844.089)"/>
      </g>
      <g id="Group_4131" data-name="Group 4131" transform="translate(14.807 76.471)">
        <rect id="Rectangle_2429" data-name="Rectangle 2429" width="9.856" height="5.603" rx="2.801" transform="matrix(0.816, 0.578, -0.578, 0.816, 3.241, 0)" fill="#fff"/>
        <path id="Path_27827" data-name="Path 27827" d="M353.778,879.039a2.047,2.047,0,0,1-1.189-.38l-5.232-3.71a2.065,2.065,0,0,1-.489-2.875l1.25-1.762a2.065,2.065,0,0,1,2.875-.49l5.232,3.71a2.062,2.062,0,0,1,.489,2.875l-1.249,1.762a2.049,2.049,0,0,1-1.336.84A2.079,2.079,0,0,1,353.778,879.039Zm-3.976-8.915a1.38,1.38,0,0,0-1.128.581l-1.249,1.762a1.381,1.381,0,0,0,.327,1.924l5.232,3.71a1.38,1.38,0,0,0,1.924-.328l1.25-1.762a1.38,1.38,0,0,0-.327-1.924l-5.232-3.71A1.373,1.373,0,0,0,349.8,870.125Z" transform="translate(-346.151 -869.105)"/>
      </g>
      <path id="Path_27828" data-name="Path 27828" d="M435.527,723.856l-51.765,16.706a28.361,28.361,0,0,0,6.892,6.943q1.083.768,2.212,1.419l40.175-12.965A28.3,28.3,0,0,0,435.527,723.856Z" transform="translate(-360.139 -680.161)" fill="#99b9ff"/>
      <path id="Path_27829" data-name="Path 27829" d="M406.24,608.345a28.343,28.343,0,0,0-10.32-4.579L368.6,612.581a28.443,28.443,0,0,0-3.806,32.511l53.2-17.168A28.354,28.354,0,0,0,406.24,608.345Z" transform="translate(-342.834 -587.385)" fill="#99b9ff"/>
      <g id="Group_4132" data-name="Group 4132" transform="translate(18.181 15.373)">
        <path id="Path_27830" data-name="Path 27830" d="M590.921,660.1a.342.342,0,0,1-.324-.234,27.993,27.993,0,0,0-3.745-7.387.341.341,0,0,1,.556-.4,28.673,28.673,0,0,1,3.836,7.567.341.341,0,0,1-.324.449Z" transform="translate(-535.169 -639.973)"/>
        <path id="Path_27831" data-name="Path 27831" d="M387.946,656.88h-.008a28.774,28.774,0,1,1,17.321-52.237.341.341,0,0,1-.395.557,28.09,28.09,0,1,0-16.91,51,.341.341,0,0,1-.008.682Z" transform="translate(-359.836 -599.333)"/>
      </g>
    </g>
    <g id="Group_4152" data-name="Group 4152" transform="translate(373.237 249.312)">
      <g id="Group_4142" data-name="Group 4142" transform="translate(1.193 47.049)">
        <g id="Group_4136" data-name="Group 4136" transform="translate(36.555 64.727)">
          <g id="Group_4134" data-name="Group 4134" transform="translate(0.377)">
            <path id="Path_27832" data-name="Path 27832" d="M986.655,944.008l1.161,8.153,2.971.011.14-8.019Z" transform="translate(-986.314 -943.667)" fill="#fff"/>
            <path id="Path_27833" data-name="Path 27833" d="M989.629,951.355h0l-2.971-.011a.341.341,0,0,1-.336-.293l-1.162-8.153a.341.341,0,0,1,.35-.389l4.273.146a.341.341,0,0,1,.33.347l-.14,8.019A.341.341,0,0,1,989.629,951.355Zm-2.675-.693,2.34.009.129-7.347-3.531-.121Z" transform="translate(-985.155 -942.508)"/>
          </g>
          <g id="Group_4135" data-name="Group 4135" transform="translate(0 6.195)">
            <path id="Path_27834" data-name="Path 27834" d="M986.438,980.976a27.5,27.5,0,0,0,5.223-.03,1.433,1.433,0,0,0,1.281-1.664c-.36-2.213-1.366-6.116-2.951-7.907l-.783,1.116-.465-1.153c-.075-.125-2.044-.207-2.085.027l-.12,1.126-1.118-1.253.061,4.114a6.232,6.232,0,0,1-.128,1.353l-.294,1.422a2.706,2.706,0,0,0,.64,2.4A1.294,1.294,0,0,0,986.438,980.976Z" transform="translate(-984.659 -970.882)" fill="#fff"/>
            <path id="Path_27835" data-name="Path 27835" d="M987.535,980.29a21.654,21.654,0,0,1-2.293-.11h0a1.6,1.6,0,0,1-.951-.555,3.043,3.043,0,0,1-.725-2.7l.294-1.422a5.88,5.88,0,0,0,.121-1.279l-.061-4.114a.341.341,0,0,1,.6-.232l.605.678.038-.361c0-.008,0-.015,0-.023.053-.3.384-.36.492-.38.019,0,1.965-.193,2.222.236a.346.346,0,0,1,.024.048l.23.57.422-.6a.341.341,0,0,1,.535-.03c2.045,2.311,2.937,7.495,3.032,8.078a1.793,1.793,0,0,1-.353,1.385,1.742,1.742,0,0,1-1.235.674C989.368,980.253,988.371,980.29,987.535,980.29Zm-2.22-.789a26.952,26.952,0,0,0,5.156-.03,1.067,1.067,0,0,0,.757-.413,1.108,1.108,0,0,0,.218-.856c-.313-1.922-1.2-5.51-2.594-7.4l-.523.745a.341.341,0,0,1-.6-.068l-.406-1.008a7.115,7.115,0,0,0-1.508-.022l-.1.938a.341.341,0,0,1-.594.191l-.509-.57.048,3.2a6.559,6.559,0,0,1-.135,1.427l-.294,1.422a2.361,2.361,0,0,0,.555,2.1A1,1,0,0,0,985.314,979.5Z" transform="translate(-983.499 -969.746)"/>
          </g>
          <path id="Path_27836" data-name="Path 27836" d="M992.385,1006.506a11.839,11.839,0,0,1-2.164-.17.341.341,0,0,1,.135-.669,14.664,14.664,0,0,0,4.9-.1.341.341,0,1,1,.118.672A17.327,17.327,0,0,1,992.385,1006.506Z" transform="translate(-988.481 -991.221)"/>
          <path id="Path_27837" data-name="Path 27837" d="M998.022,993.644h-2.7a.341.341,0,1,1,0-.682h2.7a.341.341,0,1,1,0,.682Z" transform="translate(-992.373 -981.486)"/>
        </g>
        <g id="Group_4139" data-name="Group 4139" transform="translate(0 64.652)">
          <g id="Group_4137" data-name="Group 4137" transform="translate(10.562)">
            <path id="Path_27838" data-name="Path 27838" d="M875.76,944.482l-1.046,9.5-4,.837.243-11.143Z" transform="translate(-870.376 -943.338)" fill="#fff"/>
            <path id="Path_27839" data-name="Path 27839" d="M869.559,954a.341.341,0,0,1-.341-.349l.243-11.142a.341.341,0,0,1,.4-.329l4.8.8a.341.341,0,0,1,.283.374l-1.045,9.5a.341.341,0,0,1-.269.3l-4,.837A.348.348,0,0,1,869.559,954Zm.576-11.082-.225,10.319,3.334-.7.983-8.936Z" transform="translate(-869.218 -942.179)"/>
          </g>
          <g id="Group_4138" data-name="Group 4138" transform="translate(0 8.561)">
            <path id="Path_27840" data-name="Path 27840" d="M840.529,987.595c.088-1.665.09-4.732-.924-6.21l-3.2,1.139v-.683a.4.4,0,0,0-.357-.413l-1.783-.1a3.88,3.88,0,0,0-1.937.4c-1.793.882-7.247,3.142-8,5.684a1.208,1.208,0,0,0,1.145,1.522c1.8.051,6.111.108,13.856-.157A1.245,1.245,0,0,0,840.529,987.595Z" transform="translate(-823.938 -980.978)" fill="#fff"/>
            <path id="Path_27841" data-name="Path 27841" d="M827.891,988.157c-1.643,0-2.817-.022-3.588-.044a1.59,1.59,0,0,1-1.234-.654,1.49,1.49,0,0,1-.228-1.307c.709-2.384,5.06-4.425,7.4-5.521.3-.142.569-.267.782-.372a4.237,4.237,0,0,1,2.107-.433l1.783.1a.739.739,0,0,1,.679.753v.2l2.742-.976a.341.341,0,0,1,.4.128c1.068,1.557,1.075,4.691.983,6.421a1.577,1.577,0,0,1-1.53,1.5C833.638,988.111,830.272,988.157,827.891,988.157Zm5-7.655a3.57,3.57,0,0,0-1.571.37c-.216.107-.486.233-.794.377-2.081.976-6.411,3.007-7.033,5.1a.813.813,0,0,0,.127.712.9.9,0,0,0,.7.372c1.878.054,6.173.1,13.835-.157a.9.9,0,0,0,.872-.855h0c.138-2.608-.127-4.686-.729-5.778l-2.938,1.046a.341.341,0,0,1-.455-.321v-.683c0-.046-.027-.072-.036-.072l-1.783-.1C833.024,980.5,832.959,980.5,832.894,980.5Z" transform="translate(-822.78 -979.82)"/>
          </g>
          <path id="Path_27842" data-name="Path 27842" d="M836.326,1005.561c-2.383,0-3.887-.11-3.916-.112a.341.341,0,1,1,.052-.68,73.606,73.606,0,0,0,12.478-.374.341.341,0,0,1,.079.678A76.542,76.542,0,0,1,836.326,1005.561Z" transform="translate(-829.976 -990.242)"/>
          <path id="Path_27843" data-name="Path 27843" d="M853.9,987.734a.341.341,0,0,1-.2-.618l3.078-2.214a.341.341,0,0,1,.4.554l-3.078,2.214A.34.34,0,0,1,853.9,987.734Z" transform="translate(-846.555 -975.135)"/>
        </g>
        <g id="Group_4141" data-name="Group 4141" transform="translate(9.68)">
          <g id="Group_4140" data-name="Group 4140">
            <path id="Path_27844" data-name="Path 27844" d="M871.512,663.226s-5.73,39.306-4.509,65.541l1.788.179a19.312,19.312,0,0,0,2.893.071l1.7-.085s6.833-39.852,10.245-46.47c0,0,9.279,35.44,9.636,45.041,0,0,4.125.415,5.768-.177.883-9.266,1.138-18.857,1.182-24.878.126-17.233-1.521-25.061-2.423-28.774-.829-3.41-1.719-6.181-2.368-8.055l-2.17-6.188Z" transform="translate(-866.493 -659.089)"/>
            <path id="Path_27845" data-name="Path 27845" d="M869.564,728.223c-.655,0-1.311-.033-1.96-.1l-1.788-.179a.341.341,0,0,1-.307-.323c-1.209-25.967,4.455-65.212,4.512-65.606a.341.341,0,0,1,.279-.287l21.737-3.8a.341.341,0,0,1,.381.223l2.169,6.189c.915,2.641,1.715,5.362,2.378,8.088,1.1,4.533,2.553,12.456,2.433,28.857-.037,5.051-.24,15-1.184,24.908a.342.342,0,0,1-.224.289c-1.7.611-5.746.213-5.918.2a.341.341,0,0,1-.307-.327c-.32-8.584-7.917-38.358-9.382-44.032-3.458,8.535-9.755,45.123-9.821,45.506a.341.341,0,0,1-.319.283l-1.7.085Q870.058,728.223,869.564,728.223Zm-3.386-.926,1.494.149a19.03,19.03,0,0,0,2.842.07l1.422-.071c.655-3.8,6.944-39.923,10.231-46.3a.341.341,0,0,1,.633.07c.092.351,9.1,34.868,9.633,44.814a19.4,19.4,0,0,0,5.123-.12c.923-9.8,1.122-19.622,1.159-24.624.12-16.326-1.32-24.194-2.414-28.691-.658-2.7-1.451-5.4-2.359-8.024l-2.073-5.914-21.208,3.7C870.185,665.715,865.076,702.47,866.178,727.3Z" transform="translate(-865.34 -657.929)"/>
          </g>
          <path id="Path_27846" data-name="Path 27846" d="M927.98,746.273a.341.341,0,0,1-.329-.251l-.953-3.469a2.225,2.225,0,0,0-1.7-1.6l-.892-.184a.341.341,0,1,1,.138-.668l.892.184a2.9,2.9,0,0,1,2.222,2.084l.953,3.469a.341.341,0,0,1-.239.419A.337.337,0,0,1,927.98,746.273Z" transform="translate(-910.528 -721.408)"/>
          <path id="Path_27847" data-name="Path 27847" d="M975.272,719.721a.346.346,0,0,1-.057,0,7.694,7.694,0,0,1-6.459-5.2.341.341,0,0,1,.663-.162c.039.158,1.012,3.875,5.908,4.691a.341.341,0,0,1-.055.678Z" transform="translate(-945.227 -701.318)"/>
          <path id="Path_27848" data-name="Path 27848" d="M885.112,711.307a.341.341,0,0,1-.136-.654,4.13,4.13,0,0,0,2.67-3.756.341.341,0,0,1,.682-.025,4.884,4.884,0,0,1-3.08,4.407A.339.339,0,0,1,885.112,711.307Z" transform="translate(-880.351 -695.487)"/>
        </g>
      </g>
      <g id="Group_4147" data-name="Group 4147" transform="translate(0 17.619)">
        <path id="Path_27849" data-name="Path 27849" d="M833.89,529.389c3.79-.427,11.88-1.194,17.444-.685a11.245,11.245,0,0,1,5.382,2.282c3.763,3.247,10.862,10.4,12.048,18.98a2.429,2.429,0,0,1-1.882,2.7l-6.559,1.454s2.615,10.305,2.4,12.085-5.629,4.808-12.405,2.324c-5.284-1.937-12.763-3.477-17.511-1.806-.045.016-.5,3.664-.547,3.671-1.524.222-3.061-.372-3.024-2.514l.723-11.128L821.27,555.6l-.777-.259a4.32,4.32,0,0,1-2.658-5.678c2.042-5.2,5.123-13.612,10.83-18.26A11.954,11.954,0,0,1,833.89,529.389Z" transform="translate(-817.536 -528.536)" fill="#2fbf71"/>
        <g id="Group_4145" data-name="Group 4145" transform="translate(0.397 13.242)">
          <g id="Group_4143" data-name="Group 4143">
            <path id="Path_27850" data-name="Path 27850" d="M840.346,609.774H826.763a1.284,1.284,0,0,1-1.246-.975l-4.7-18.949a1.284,1.284,0,0,1,1.246-1.593h13.583a1.284,1.284,0,0,1,1.246.975l4.7,18.949A1.284,1.284,0,0,1,840.346,609.774Z" transform="translate(-820.438 -587.916)" fill="#caddff"/>
            <path id="Path_27851" data-name="Path 27851" d="M839.187,608.957H825.6a1.622,1.622,0,0,1-1.577-1.234l-4.7-18.949a1.625,1.625,0,0,1,1.577-2.016h13.583a1.622,1.622,0,0,1,1.577,1.234l4.7,18.949a1.625,1.625,0,0,1-1.577,2.016ZM820.9,587.44a.942.942,0,0,0-.915,1.169l4.7,18.949a.941.941,0,0,0,.915.716h13.583a.942.942,0,0,0,.915-1.169l-4.7-18.949a.941.941,0,0,0-.915-.716Z" transform="translate(-819.279 -586.758)"/>
          </g>
          <g id="Group_4144" data-name="Group 4144" transform="translate(0.444 9.094)">
            <path id="Path_27852" data-name="Path 27852" d="M824.544,628.833l.456,1.912,1.642-.547a12.793,12.793,0,0,0,2.589-1.2l.942-.571a1.293,1.293,0,0,1,1.89.683c.581,1.649.466,4.41-5.449,6.145-3.265.958-4.2-3.224-3.777-5.548a1.949,1.949,0,0,1,.7-1.213A.631.631,0,0,1,824.544,628.833Z" transform="translate(-822.399 -627.901)" fill="#fff"/>
            <path id="Path_27853" data-name="Path 27853" d="M824.54,634.579a2.644,2.644,0,0,1-1.814-.693c-1.325-1.192-1.706-3.67-1.392-5.4a2.281,2.281,0,0,1,.821-1.418.973.973,0,0,1,1.551.519v.005l.37,1.55,1.289-.429a12.454,12.454,0,0,0,2.52-1.166l.942-.571a1.635,1.635,0,0,1,2.389.861,3.772,3.772,0,0,1-.154,3.04c-.771,1.5-2.628,2.7-5.52,3.546A3.571,3.571,0,0,1,824.54,634.579Zm-1.779-7.039a.282.282,0,0,0-.179.064,1.62,1.62,0,0,0-.577,1.008c-.285,1.566.078,3.777,1.177,4.766a2.146,2.146,0,0,0,2.168.393c2.706-.794,4.423-1.871,5.106-3.2a3.067,3.067,0,0,0,.117-2.5.959.959,0,0,0-.582-.587.942.942,0,0,0-.809.082l-.942.571a13.161,13.161,0,0,1-2.658,1.23l-1.642.547a.341.341,0,0,1-.44-.244l-.456-1.909a.287.287,0,0,0-.189-.2A.3.3,0,0,0,822.761,627.54Z" transform="translate(-821.23 -626.742)"/>
          </g>
        </g>
        <g id="Group_4146" data-name="Group 4146" transform="translate(25.102 10.64)">
          <path id="Path_27854" data-name="Path 27854" d="M938.354,578.135a10.406,10.406,0,0,0,2.3,1.774c2.852,1.624,9.664,5.555,11.358,7,2.159,1.845,3.192,2.532,1.457,7.278-2.829,7.735-16.017-12.122-16.017-12.122s-3.874.7-4.744-2.694a7.111,7.111,0,0,1-2.86.014.789.789,0,0,1,.244-1.495l5.572-1.039a2.353,2.353,0,0,1,2.1.672Z" transform="translate(-929.057 -576.476)" fill="#fff"/>
          <path id="Path_27855" data-name="Path 27855" d="M950.214,595.16c-4.577,0-12.946-12.187-14.091-13.886-.856.087-3.888.182-4.82-2.672a6.213,6.213,0,0,1-2.753-.06,1.125,1.125,0,0,1-.643-1.191,1.106,1.106,0,0,1,.975-.955l5.557-1.036a2.692,2.692,0,0,1,2.4.769l.595.609a10.056,10.056,0,0,0,2.222,1.715c2.859,1.628,9.695,5.574,11.411,7.04l.19.162c2.226,1.9,3.062,2.851,1.365,7.492a2.647,2.647,0,0,1-2.129,2A2.422,2.422,0,0,1,950.214,595.16ZM936.29,580.568a.341.341,0,0,1,.284.152c2.582,3.887,9.952,13.758,13.62,13.758a1.876,1.876,0,0,0,.223-.013c.7-.083,1.217-.591,1.569-1.552,1.6-4.38.791-5.071-1.167-6.738l-.191-.163c-1.672-1.428-8.463-5.347-11.306-6.966a10.755,10.755,0,0,1-2.373-1.832l-.594-.609a2.01,2.01,0,0,0-1.793-.575l-5.57,1.038a.425.425,0,0,0-.408.373.445.445,0,0,0,.237.474,6.521,6.521,0,0,0,2.662-.037.342.342,0,0,1,.393.251c.782,3.052,4.206,2.469,4.352,2.443A.351.351,0,0,1,936.29,580.568Z" transform="translate(-927.897 -575.318)"/>
        </g>
      </g>
      <g id="Group_4151" data-name="Group 4151" transform="translate(13.483 0)">
        <g id="Group_4148" data-name="Group 4148" transform="translate(3.837 8.453)">
          <path id="Path_27856" data-name="Path 27856" d="M899.009,492.129l-.417,5.8a1.852,1.852,0,0,1-1.371,1.568l-2.038.531,1.322,1.007a8.2,8.2,0,0,0,9.927.009l2.092-1.587-2.532-.565a1.852,1.852,0,0,1-1.419-1.479l-1.118-7.676Z" transform="translate(-894.842 -489.397)" fill="#fff"/>
          <path id="Path_27857" data-name="Path 27857" d="M900.316,501.889a8.534,8.534,0,0,1-5.176-1.74l-1.322-1.007a.341.341,0,0,1,.121-.6l2.038-.531a1.5,1.5,0,0,0,1.119-1.279l.415-5.785a.341.341,0,0,1,.179-.276l4.446-2.392a.341.341,0,0,1,.5.251l1.118,7.676a1.5,1.5,0,0,0,1.156,1.2l2.531.565a.341.341,0,0,1,.132.6l-2.092,1.587A8.535,8.535,0,0,1,900.316,501.889Zm-5.527-2.865.764.582a7.885,7.885,0,0,0,9.514.009l1.506-1.143-1.814-.405a2.188,2.188,0,0,1-1.68-1.751l-1.05-7.206-3.852,2.072-.4,5.614a2.186,2.186,0,0,1-1.625,1.874Z" transform="translate(-893.684 -488.237)"/>
        </g>
        <g id="Group_4150" data-name="Group 4150">
          <path id="Path_27858" data-name="Path 27858" d="M878.227,454.183c1.4-.738.272,1.56,4.859-2.41,1.827-1.581,1.892,1.37,2.367.961,1.754-1.51,1.693-1.46,2.8-1.652.733-.127,1.713.884,2,1.841.385,1.263-.455,2.019-.169,4.929.2,2.043.844,3.047.256,3.627s-1.565-.131-2.263.461c-.9.766.128,2.47-.54,3.678-.421.761-1.8,1.658-4.712,1.588a.986.986,0,0,1-.947-.825c-.1-.6-.219-1.354-.274-2.086-.26-3.488.491-4.647-.249-5.243-1.133-.914-3.059.788-3.876-.014C876.635,458.2,876.317,455.193,878.227,454.183Z" transform="translate(-876.815 -451.071)"/>
          <g id="Group_4149" data-name="Group 4149" transform="translate(3.015 4.356)">
            <path id="Path_27859" data-name="Path 27859" d="M896.566,472.1l-.058.953a9.743,9.743,0,0,0,.011,1.347c.065.841.166,2.289.161,3.1-.007,1.2-3.707,1.431-3.707,1.431l-.469-.522-.434.018a.486.486,0,0,1-.244-.049.467.467,0,0,1-.248-.491,16.816,16.816,0,0,0,.142-5.206A5.062,5.062,0,0,1,896.566,472.1Z" transform="translate(-891.23 -471.392)" fill="#fff"/>
            <path id="Path_27860" data-name="Path 27860" d="M891.814,478.109a.341.341,0,0,1-.254-.113l-.362-.4-.274.012a.835.835,0,0,1-.416-.088.809.809,0,0,1-.426-.849,16.681,16.681,0,0,0,.144-5.088.341.341,0,0,1,.12-.328,5.364,5.364,0,0,1,5.185-.637.341.341,0,0,1,.216.338l-.058.953a9.473,9.473,0,0,0,.011,1.3c.063.811.168,2.3.163,3.133-.009,1.442-3.356,1.727-4.027,1.769Zm-.469-1.2a.341.341,0,0,1,.254.113l.358.4c1.584-.123,3.221-.573,3.224-1.081.005-.81-.1-2.274-.161-3.076a10.146,10.146,0,0,1-.011-1.394l.042-.7a4.755,4.755,0,0,0-4.117.5,17.52,17.52,0,0,1-.178,5.109.126.126,0,0,0,.069.133.148.148,0,0,0,.072.011l.434-.018Z" transform="translate(-890.071 -470.221)"/>
          </g>
          <path id="Path_27861" data-name="Path 27861" d="M916.388,479.376s.136-2.291,1.164-2A1.158,1.158,0,1,1,916.388,479.376Z" transform="translate(-907.387 -471.372)" fill="#fff"/>
        </g>
      </g>
    </g>
    <g id="Group_4160" data-name="Group 4160" transform="translate(254.76 197.965)">
      <g id="Group_4155" data-name="Group 4155" transform="translate(89.172 0)">
        <g id="Group_4154" data-name="Group 4154">
          <g id="Group_4153" data-name="Group 4153" transform="translate(20.033)">
            <path id="Path_27862" data-name="Path 27862" d="M790.029,227.769a.341.341,0,0,1-.341-.341v-1.765a.341.341,0,0,1,.682,0v1.765A.341.341,0,0,1,790.029,227.769Z" transform="translate(-786.75 -225.322)"/>
            <path id="Path_27863" data-name="Path 27863" d="M790.029,245.841a.341.341,0,0,1-.341-.341v-1.764a.341.341,0,0,1,.682,0V245.5A.341.341,0,0,1,790.029,245.841Z" transform="translate(-786.75 -239.284)"/>
            <path id="Path_27864" data-name="Path 27864" d="M796.951,238.919h-1.765a.341.341,0,1,1,0-.682h1.765a.341.341,0,1,1,0,.682Z" transform="translate(-790.735 -235.3)"/>
            <path id="Path_27865" data-name="Path 27865" d="M778.879,238.919h-1.765a.341.341,0,1,1,0-.682h1.765a.341.341,0,1,1,0,.682Z" transform="translate(-776.773 -235.3)"/>
          </g>
          <path id="Path_27866" data-name="Path 27866" d="M690.591,244.147a1.868,1.868,0,0,1-.766-.165,1.945,1.945,0,0,1-.971-2.539,1.9,1.9,0,0,1,1.06-1.027,1.856,1.856,0,0,1,1.444.037,1.945,1.945,0,0,1,.971,2.539,1.9,1.9,0,0,1-1.06,1.027A1.868,1.868,0,0,1,690.591,244.147Zm0-3.177a1.191,1.191,0,0,0-.431.081,1.22,1.22,0,0,0-.681.661,1.26,1.26,0,0,0,.624,1.646,1.181,1.181,0,0,0,.917.024,1.22,1.22,0,0,0,.681-.661,1.26,1.26,0,0,0-.624-1.646A1.187,1.187,0,0,0,690.592,240.97Z" transform="translate(-688.694 -236.884)"/>
        </g>
      </g>
      <g id="Group_4157" data-name="Group 4157" transform="translate(0 39.638)">
        <g id="Group_4156" data-name="Group 4156">
          <path id="Path_27867" data-name="Path 27867" d="M298.388,456.27a.341.341,0,0,1-.334-.274,63.922,63.922,0,0,1,14.906-56.288.341.341,0,0,1,.508.456,63.689,63.689,0,0,0-14.745,55.7.341.341,0,0,1-.335.409Z" transform="translate(-296.639 -399.596)"/>
          <path id="Path_27868" data-name="Path 27868" d="M329.942,541.843a.341.341,0,0,1-.34-.315,74.976,74.976,0,0,1,2.12-25.068.341.341,0,1,1,.659.175,74.306,74.306,0,0,0-2.1,24.841.341.341,0,0,1-.314.367Z" transform="translate(-321.913 -489.683)"/>
          <path id="Path_27869" data-name="Path 27869" d="M347.312,448.66a.341.341,0,0,1-.326-.442,46.805,46.805,0,0,1,5.639-12.411.341.341,0,1,1,.553.4,46.162,46.162,0,0,0-5.541,12.214A.341.341,0,0,1,347.312,448.66Z" transform="translate(-335.523 -427.462)"/>
        </g>
        <path id="Path_27870" data-name="Path 27870" d="M304.454,665.25a1.868,1.868,0,0,1-.678-.128,1.9,1.9,0,0,1-1.06-1.027,1.945,1.945,0,0,1,.971-2.539,1.857,1.857,0,0,1,1.444-.037,1.9,1.9,0,0,1,1.06,1.027,1.945,1.945,0,0,1-.971,2.539A1.868,1.868,0,0,1,304.454,665.25Zm0-3.177a1.185,1.185,0,0,0-.487.105,1.26,1.26,0,0,0-.624,1.646,1.221,1.221,0,0,0,.681.661,1.179,1.179,0,0,0,.917-.024,1.259,1.259,0,0,0,.624-1.646,1.221,1.221,0,0,0-.681-.661A1.191,1.191,0,0,0,304.453,662.073Zm-.627-.206h0Z" transform="translate(-301.21 -601.846)"/>
      </g>
      <g id="Group_4159" data-name="Group 4159" transform="translate(167.135 122.579)">
        <g id="Group_4158" data-name="Group 4158" transform="translate(0 19.928)">
          <path id="Path_27871" data-name="Path 27871" d="M1047.463,862.557a.341.341,0,0,1-.041-.68l1.529-.187a.341.341,0,1,1,.083.677l-1.529.187Z" transform="translate(-1043.56 -859.454)"/>
          <path id="Path_27872" data-name="Path 27872" d="M1031.8,864.474a.341.341,0,0,1-.041-.68l1.529-.187a.341.341,0,0,1,.083.677l-1.529.187Z" transform="translate(-1031.464 -860.935)"/>
          <path id="Path_27873" data-name="Path 27873" d="M1041.811,854.079a.341.341,0,0,1-.338-.3l-.187-1.529a.341.341,0,1,1,.677-.083l.188,1.529a.341.341,0,0,1-.3.38Z" transform="translate(-1039.049 -851.868)"/>
          <path id="Path_27874" data-name="Path 27874" d="M1043.728,869.737a.341.341,0,0,1-.338-.3l-.187-1.529a.341.341,0,1,1,.677-.083l.187,1.529a.341.341,0,0,1-.3.38Z" transform="translate(-1040.531 -863.964)"/>
        </g>
        <path id="Path_27875" data-name="Path 27875" d="M1044.812,782.014a.336.336,0,0,1-.052,0,.341.341,0,0,1-.285-.389,33.1,33.1,0,0,0-1.881-16.888.341.341,0,0,1,.622-.28,33.815,33.815,0,0,1,1.933,17.272A.341.341,0,0,1,1044.812,782.014Z" transform="translate(-1040.039 -764.252)"/>
      </g>
      <path id="Path_27876" data-name="Path 27876" d="M1026.519,467.112a1.863,1.863,0,0,1-.766-.166,1.945,1.945,0,0,1-.971-2.539,1.9,1.9,0,0,1,1.06-1.027,1.858,1.858,0,0,1,1.444.037,1.945,1.945,0,0,1,.971,2.539,1.9,1.9,0,0,1-1.06,1.027A1.869,1.869,0,0,1,1026.519,467.112Zm0-3.177a1.187,1.187,0,0,0-.431.081,1.22,1.22,0,0,0-.681.661,1.26,1.26,0,0,0,.624,1.646,1.18,1.18,0,0,0,.917.024,1.221,1.221,0,0,0,.681-.661,1.26,1.26,0,0,0-.624-1.646A1.184,1.184,0,0,0,1026.52,463.935Z" transform="translate(-859.044 -409.136)"/>
    </g>
  </g>
</svg>
