<svg id="Group_3913" data-name="Group 3913" xmlns="http://www.w3.org/2000/svg" width="40" height="40" viewBox="0 0 40 40">
  <circle id="Ellipse_1131" data-name="Ellipse 1131" cx="20" cy="20" r="20" fill="#64c2eb"/>
  <g id="Group_3924" data-name="Group 3924" transform="translate(9.494 8.849)">
    <g id="Path_27450" data-name="Path 27450" transform="translate(-1675.793 -574.32)" fill="#fff">
      <path d="M 1685.080444335938 580.4859008789062 C 1684.749145507812 580.4859008789062 1684.46923828125 580.2188110351562 1684.46923828125 579.902587890625 L 1684.46923828125 578.9335327148438 L 1682.026000976562 578.9335327148438 L 1681.926025390625 578.9335327148438 L 1681.926025390625 578.8335571289062 L 1681.926025390625 577.865966796875 L 1681.926025390625 577.7659912109375 L 1682.026000976562 577.7659912109375 L 1684.46923828125 577.7659912109375 L 1684.46923828125 577.0003662109375 C 1684.46923828125 576.6841430664062 1684.749145507812 576.4170532226562 1685.080444335938 576.4170532226562 C 1685.412353515625 576.4170532226562 1685.692626953125 576.6841430664062 1685.692626953125 577.0003662109375 L 1685.692626953125 579.902587890625 C 1685.692626953125 580.2188110351562 1685.412353515625 580.4859008789062 1685.080444335938 580.4859008789062 Z" stroke="none"/>
      <path d="M 1685.080444335938 576.5170288085938 C 1684.813354492188 576.5170288085938 1684.569213867188 576.7332153320312 1684.569213867188 577.0003662109375 L 1684.569213867188 577.865966796875 L 1682.026000976562 577.865966796875 L 1682.026000976562 578.8335571289062 L 1684.569213867188 578.8335571289062 L 1684.569213867188 579.902587890625 C 1684.569213867188 580.169677734375 1684.813354492188 580.3859252929688 1685.080444335938 580.3859252929688 C 1685.348022460938 580.3859252929688 1685.592651367188 580.169677734375 1685.592651367188 579.902587890625 L 1685.592651367188 577.0003662109375 C 1685.592651367188 576.7332153320312 1685.348022460938 576.5170288085938 1685.080444335938 576.5170288085938 M 1685.080444335938 576.3170166015625 C 1685.466552734375 576.3170166015625 1685.792602539062 576.6299438476562 1685.792602539062 577.0003662109375 L 1685.792602539062 579.902587890625 C 1685.792602539062 580.2730102539062 1685.466552734375 580.5859375 1685.080444335938 580.5859375 C 1684.694946289062 580.5859375 1684.369262695312 580.2730102539062 1684.369262695312 579.902587890625 L 1684.369262695312 579.0335693359375 L 1681.826049804688 579.0335693359375 L 1681.826049804688 577.6659545898438 L 1684.369262695312 577.6659545898438 L 1684.369262695312 577.0003662109375 C 1684.369262695312 576.6299438476562 1684.694946289062 576.3170166015625 1685.080444335938 576.3170166015625 Z" stroke="none" fill="#fff"/>
    </g>
    <g id="Path_27451" data-name="Path 27451" transform="translate(-1633.99 -559.585)" fill="#fff">
      <path d="M 1655.431518554688 579.8359985351562 L 1646.973510742188 579.8359985351562 L 1646.063842773438 579.8359985351562 L 1643.10693359375 579.8359985351562 L 1642.77001953125 579.8359985351562 L 1642.197143554688 579.8359985351562 L 1634.471069335938 579.8359985351562 C 1634.150756835938 579.8359985351562 1633.89013671875 579.5743408203125 1633.89013671875 579.252685546875 L 1633.89013671875 564.5433349609375 C 1633.89013671875 563.7094116210938 1634.49560546875 563.0309448242188 1635.239868164062 563.0309448242188 L 1637.207275390625 563.0309448242188 L 1637.207275390625 562.2653198242188 C 1637.207275390625 561.9491577148438 1637.487426757812 561.6820678710938 1637.818969726562 561.6820678710938 C 1638.150512695312 561.6820678710938 1638.4306640625 561.9491577148438 1638.4306640625 562.2653198242188 L 1638.4306640625 565.1676025390625 C 1638.4306640625 565.4837646484375 1638.150512695312 565.7508544921875 1637.818969726562 565.7508544921875 C 1637.487426757812 565.7508544921875 1637.207275390625 565.4837646484375 1637.207275390625 565.1676025390625 L 1637.207275390625 564.198486328125 L 1635.239868164062 564.198486328125 C 1635.17724609375 564.198486328125 1635.057495117188 564.332763671875 1635.057495117188 564.5433349609375 L 1635.057495117188 566.3433837890625 L 1647.135009765625 566.3433837890625 L 1647.135009765625 564.198486328125 L 1645.059448242188 564.198486328125 L 1644.95947265625 564.198486328125 L 1644.95947265625 564.0985107421875 L 1644.95947265625 563.1309204101562 L 1644.95947265625 563.0309448242188 L 1645.059448242188 563.0309448242188 L 1647.135009765625 563.0309448242188 L 1647.135009765625 560.9769287109375 C 1647.135009765625 560.154296875 1647.804931640625 559.4850463867188 1648.628295898438 559.4850463867188 L 1656.805297851562 559.4850463867188 C 1657.628051757812 559.4850463867188 1658.29736328125 560.154296875 1658.29736328125 560.9769287109375 L 1658.29736328125 569.1543579101562 C 1658.29736328125 569.9777221679688 1657.628051757812 570.6475219726562 1656.805297851562 570.6475219726562 L 1656.014892578125 570.6475219726562 L 1656.014892578125 579.252685546875 C 1656.014892578125 579.5743408203125 1655.753173828125 579.8359985351562 1655.431518554688 579.8359985351562 Z M 1635.057495117188 578.66943359375 L 1654.848388671875 578.66943359375 L 1654.848388671875 570.6475219726562 L 1648.628295898438 570.6475219726562 C 1647.804931640625 570.6475219726562 1647.135009765625 569.9777221679688 1647.135009765625 569.1543579101562 L 1647.135009765625 567.5669555664062 L 1635.057495117188 567.5669555664062 L 1635.057495117188 578.66943359375 Z M 1648.628295898438 560.6514892578125 C 1648.448852539062 560.6514892578125 1648.302734375 560.7974853515625 1648.302734375 560.9769287109375 L 1648.302734375 569.1543579101562 C 1648.302734375 569.3338012695312 1648.448852539062 569.4797973632812 1648.628295898438 569.4797973632812 L 1656.805297851562 569.4797973632812 C 1656.984741210938 569.4797973632812 1657.130859375 569.3338012695312 1657.130859375 569.1543579101562 L 1657.130859375 560.9769287109375 C 1657.130859375 560.7974853515625 1656.984741210938 560.6514892578125 1656.805297851562 560.6514892578125 L 1648.628295898438 560.6514892578125 Z" stroke="none"/>
      <path d="M 1648.628295898438 559.5850219726562 C 1647.860717773438 559.5850219726562 1647.234985351562 560.2092895507812 1647.234985351562 560.9769287109375 L 1647.234985351562 563.1309204101562 L 1645.059448242188 563.1309204101562 L 1645.059448242188 564.0985107421875 L 1647.234985351562 564.0985107421875 L 1647.234985351562 566.443359375 L 1634.95751953125 566.443359375 L 1634.95751953125 564.5433349609375 C 1634.95751953125 564.2885131835938 1635.106811523438 564.0985107421875 1635.239868164062 564.0985107421875 L 1637.307250976562 564.0985107421875 L 1637.307250976562 565.1676025390625 C 1637.307250976562 565.4347534179688 1637.551513671875 565.65087890625 1637.818969726562 565.65087890625 C 1638.086181640625 565.65087890625 1638.330688476562 565.4347534179688 1638.330688476562 565.1676025390625 L 1638.330688476562 562.2653198242188 C 1638.330688476562 561.9981689453125 1638.086181640625 561.7820434570312 1637.818969726562 561.7820434570312 C 1637.551513671875 561.7820434570312 1637.307250976562 561.9981689453125 1637.307250976562 562.2653198242188 L 1637.307250976562 563.1309204101562 L 1635.239868164062 563.1309204101562 C 1634.550537109375 563.1309204101562 1633.990112304688 563.7654418945312 1633.990112304688 564.5433349609375 L 1633.990112304688 579.252685546875 C 1633.990112304688 579.5201416015625 1634.203979492188 579.7360229492188 1634.471069335938 579.7360229492188 L 1655.431518554688 579.7360229492188 C 1655.699096679688 579.7360229492188 1655.914916992188 579.5201416015625 1655.914916992188 579.252685546875 L 1655.914916992188 570.5475463867188 L 1656.805297851562 570.5475463867188 C 1657.572875976562 570.5475463867188 1658.197387695312 569.922119140625 1658.197387695312 569.1543579101562 L 1658.197387695312 560.9769287109375 C 1658.197387695312 560.2092895507812 1657.572875976562 559.5850219726562 1656.805297851562 559.5850219726562 L 1648.628295898438 559.5850219726562 M 1656.805297851562 569.5797729492188 L 1648.628295898438 569.5797729492188 C 1648.393676757812 569.5797729492188 1648.202758789062 569.3887329101562 1648.202758789062 569.1543579101562 L 1648.202758789062 560.9769287109375 C 1648.202758789062 560.74267578125 1648.393676757812 560.551513671875 1648.628295898438 560.551513671875 L 1656.805297851562 560.551513671875 C 1657.039672851562 560.551513671875 1657.230834960938 560.74267578125 1657.230834960938 560.9769287109375 L 1657.230834960938 569.1543579101562 C 1657.230834960938 569.3887329101562 1657.039672851562 569.5797729492188 1656.805297851562 569.5797729492188 M 1654.948364257812 578.7694091796875 L 1634.95751953125 578.7694091796875 L 1634.95751953125 567.4669799804688 L 1647.234985351562 567.4669799804688 L 1647.234985351562 569.1543579101562 C 1647.234985351562 569.922119140625 1647.860717773438 570.5475463867188 1648.628295898438 570.5475463867188 L 1654.948364257812 570.5475463867188 L 1654.948364257812 578.7694091796875 M 1648.628295898438 559.385009765625 L 1656.805297851562 559.385009765625 C 1657.683227539062 559.385009765625 1658.397338867188 560.0991821289062 1658.397338867188 560.9769287109375 L 1658.397338867188 569.1543579101562 C 1658.397338867188 570.0328369140625 1657.683227539062 570.74755859375 1656.805297851562 570.74755859375 L 1656.114868164062 570.74755859375 L 1656.114868164062 579.252685546875 C 1656.114868164062 579.6294555664062 1655.808349609375 579.93603515625 1655.431518554688 579.93603515625 L 1634.471069335938 579.93603515625 C 1634.095581054688 579.93603515625 1633.790161132812 579.6294555664062 1633.790161132812 579.252685546875 L 1633.790161132812 564.5433349609375 C 1633.790161132812 563.6542358398438 1634.4404296875 562.930908203125 1635.239868164062 562.930908203125 L 1637.107299804688 562.930908203125 L 1637.107299804688 562.2653198242188 C 1637.107299804688 561.8949584960938 1637.433227539062 561.58203125 1637.818969726562 561.58203125 C 1638.204711914062 561.58203125 1638.530639648438 561.8949584960938 1638.530639648438 562.2653198242188 L 1638.530639648438 565.1676025390625 C 1638.530639648438 565.5379638671875 1638.204711914062 565.8508911132812 1637.818969726562 565.8508911132812 C 1637.433227539062 565.8508911132812 1637.107299804688 565.5379638671875 1637.107299804688 565.1676025390625 L 1637.107299804688 564.2985229492188 L 1635.250366210938 564.2985229492188 C 1635.220581054688 564.3168334960938 1635.157470703125 564.406005859375 1635.157470703125 564.5433349609375 L 1635.157470703125 566.2433471679688 L 1647.035034179688 566.2433471679688 L 1647.035034179688 564.2985229492188 L 1644.859497070312 564.2985229492188 L 1644.859497070312 562.930908203125 L 1647.035034179688 562.930908203125 L 1647.035034179688 560.9769287109375 C 1647.035034179688 560.0991821289062 1647.749755859375 559.385009765625 1648.628295898438 559.385009765625 Z M 1656.805297851562 569.3797607421875 C 1656.9296875 569.3797607421875 1657.030883789062 569.2786254882812 1657.030883789062 569.1543579101562 L 1657.030883789062 560.9769287109375 C 1657.030883789062 560.8526611328125 1656.9296875 560.7515258789062 1656.805297851562 560.7515258789062 L 1648.628295898438 560.7515258789062 C 1648.50390625 560.7515258789062 1648.402709960938 560.8526611328125 1648.402709960938 560.9769287109375 L 1648.402709960938 569.1543579101562 C 1648.402709960938 569.2786254882812 1648.50390625 569.3797607421875 1648.628295898438 569.3797607421875 L 1656.805297851562 569.3797607421875 Z M 1647.035034179688 567.6669921875 L 1635.157470703125 567.6669921875 L 1635.157470703125 578.5693969726562 L 1654.748413085938 578.5693969726562 L 1654.748413085938 570.74755859375 L 1648.628295898438 570.74755859375 C 1647.749755859375 570.74755859375 1647.035034179688 570.0328369140625 1647.035034179688 569.1543579101562 L 1647.035034179688 567.6669921875 Z" stroke="none" fill="#fff"/>
    </g>
    <g id="Path_27454" data-name="Path 27454" transform="translate(-1674.36 -641.956)" fill="#fff">
      <path d="M 1681.843505859375 655.929443359375 L 1681.743530273438 655.929443359375 L 1680.379028320312 655.929443359375 L 1680.279052734375 655.929443359375 L 1680.279052734375 655.8294677734375 L 1680.279052734375 654.2373046875 L 1680.279052734375 654.1373291015625 L 1680.379028320312 654.1373291015625 L 1681.743530273438 654.1373291015625 L 1681.843505859375 654.1373291015625 L 1681.843505859375 654.2373046875 L 1681.843505859375 655.8294677734375 L 1681.843505859375 655.929443359375 Z" stroke="none"/>
      <path d="M 1681.743530273438 655.8294677734375 L 1681.743530273438 654.2373046875 L 1680.379028320312 654.2373046875 L 1680.379028320312 655.8294677734375 L 1681.743530273438 655.8294677734375 M 1681.943481445312 656.0294799804688 L 1680.179077148438 656.0294799804688 L 1680.179077148438 654.0372924804688 L 1681.943481445312 654.0372924804688 L 1681.943481445312 656.0294799804688 Z" stroke="none" fill="#fff"/>
    </g>
    <g id="Path_27455" data-name="Path 27455" transform="translate(-1674.36 -661.786)" fill="#fff">
      <path d="M 1681.843505859375 678.716552734375 L 1681.743530273438 678.716552734375 L 1680.379028320312 678.716552734375 L 1680.279052734375 678.716552734375 L 1680.279052734375 678.6165771484375 L 1680.279052734375 677.0244140625 L 1680.279052734375 676.9244384765625 L 1680.379028320312 676.9244384765625 L 1681.743530273438 676.9244384765625 L 1681.843505859375 676.9244384765625 L 1681.843505859375 677.0244140625 L 1681.843505859375 678.6165771484375 L 1681.843505859375 678.716552734375 Z" stroke="none"/>
      <path d="M 1681.743530273438 678.6165771484375 L 1681.743530273438 677.0244140625 L 1680.379028320312 677.0244140625 L 1680.379028320312 678.6165771484375 L 1681.743530273438 678.6165771484375 M 1681.943481445312 678.8165893554688 L 1680.179077148438 678.8165893554688 L 1680.179077148438 676.8244018554688 L 1681.943481445312 676.8244018554688 L 1681.943481445312 678.8165893554688 Z" stroke="none" fill="#fff"/>
    </g>
    <g id="Path_27456" data-name="Path 27456" transform="translate(-1674.36 -622.125)" fill="#fff">
      <path d="M 1681.843505859375 633.142333984375 L 1681.743530273438 633.142333984375 L 1680.379028320312 633.142333984375 L 1680.279052734375 633.142333984375 L 1680.279052734375 633.0423583984375 L 1680.279052734375 631.4502563476562 L 1680.279052734375 631.3502807617188 L 1680.379028320312 631.3502807617188 L 1681.743530273438 631.3502807617188 L 1681.843505859375 631.3502807617188 L 1681.843505859375 631.4502563476562 L 1681.843505859375 633.0423583984375 L 1681.843505859375 633.142333984375 Z" stroke="none"/>
      <path d="M 1681.743530273438 633.0423583984375 L 1681.743530273438 631.4502563476562 L 1680.379028320312 631.4502563476562 L 1680.379028320312 633.0423583984375 L 1681.743530273438 633.0423583984375 M 1681.943481445312 633.2423706054688 L 1680.179077148438 633.2423706054688 L 1680.179077148438 631.250244140625 L 1681.943481445312 631.250244140625 L 1681.943481445312 633.2423706054688 Z" stroke="none" fill="#fff"/>
    </g>
    <g id="Path_27457" data-name="Path 27457" transform="translate(-1656.055 -641.956)" fill="#fff">
      <path d="M 1660.809448242188 655.929443359375 L 1660.70947265625 655.929443359375 L 1659.344970703125 655.929443359375 L 1659.244995117188 655.929443359375 L 1659.244995117188 655.8294677734375 L 1659.244995117188 654.2373046875 L 1659.244995117188 654.1373291015625 L 1659.344970703125 654.1373291015625 L 1660.70947265625 654.1373291015625 L 1660.809448242188 654.1373291015625 L 1660.809448242188 654.2373046875 L 1660.809448242188 655.8294677734375 L 1660.809448242188 655.929443359375 Z" stroke="none"/>
      <path d="M 1660.70947265625 655.8294677734375 L 1660.70947265625 654.2373046875 L 1659.344970703125 654.2373046875 L 1659.344970703125 655.8294677734375 L 1660.70947265625 655.8294677734375 M 1660.909423828125 656.0294799804688 L 1659.14501953125 656.0294799804688 L 1659.14501953125 654.0372924804688 L 1660.909423828125 654.0372924804688 L 1660.909423828125 656.0294799804688 Z" stroke="none" fill="#fff"/>
    </g>
    <g id="Path_27458" data-name="Path 27458" transform="translate(-1656.055 -661.786)" fill="#fff">
      <path d="M 1660.809448242188 678.716552734375 L 1660.70947265625 678.716552734375 L 1659.344970703125 678.716552734375 L 1659.244995117188 678.716552734375 L 1659.244995117188 678.6165771484375 L 1659.244995117188 677.0244140625 L 1659.244995117188 676.9244384765625 L 1659.344970703125 676.9244384765625 L 1660.70947265625 676.9244384765625 L 1660.809448242188 676.9244384765625 L 1660.809448242188 677.0244140625 L 1660.809448242188 678.6165771484375 L 1660.809448242188 678.716552734375 Z" stroke="none"/>
      <path d="M 1660.70947265625 678.6165771484375 L 1660.70947265625 677.0244140625 L 1659.344970703125 677.0244140625 L 1659.344970703125 678.6165771484375 L 1660.70947265625 678.6165771484375 M 1660.909423828125 678.8165893554688 L 1659.14501953125 678.8165893554688 L 1659.14501953125 676.8244018554688 L 1660.909423828125 676.8244018554688 L 1660.909423828125 678.8165893554688 Z" stroke="none" fill="#fff"/>
    </g>
    <g id="Path_27459" data-name="Path 27459" transform="translate(-1692.665 -641.956)" fill="#fff">
      <path d="M 1702.877807617188 655.929443359375 L 1702.77783203125 655.929443359375 L 1701.4130859375 655.929443359375 L 1701.313110351562 655.929443359375 L 1701.313110351562 655.8294677734375 L 1701.313110351562 654.2373046875 L 1701.313110351562 654.1373291015625 L 1701.4130859375 654.1373291015625 L 1702.77783203125 654.1373291015625 L 1702.877807617188 654.1373291015625 L 1702.877807617188 654.2373046875 L 1702.877807617188 655.8294677734375 L 1702.877807617188 655.929443359375 Z" stroke="none"/>
      <path d="M 1702.77783203125 655.8294677734375 L 1702.77783203125 654.2373046875 L 1701.4130859375 654.2373046875 L 1701.4130859375 655.8294677734375 L 1702.77783203125 655.8294677734375 M 1702.977783203125 656.0294799804688 L 1701.213134765625 656.0294799804688 L 1701.213134765625 654.0372924804688 L 1702.977783203125 654.0372924804688 L 1702.977783203125 656.0294799804688 Z" stroke="none" fill="#fff"/>
    </g>
    <g id="Path_27460" data-name="Path 27460" transform="translate(-1692.665 -661.786)" fill="#fff">
      <path d="M 1702.877807617188 678.716552734375 L 1702.77783203125 678.716552734375 L 1701.4130859375 678.716552734375 L 1701.313110351562 678.716552734375 L 1701.313110351562 678.6165771484375 L 1701.313110351562 677.0244140625 L 1701.313110351562 676.9244384765625 L 1701.4130859375 676.9244384765625 L 1702.77783203125 676.9244384765625 L 1702.877807617188 676.9244384765625 L 1702.877807617188 677.0244140625 L 1702.877807617188 678.6165771484375 L 1702.877807617188 678.716552734375 Z" stroke="none"/>
      <path d="M 1702.77783203125 678.6165771484375 L 1702.77783203125 677.0244140625 L 1701.4130859375 677.0244140625 L 1701.4130859375 678.6165771484375 L 1702.77783203125 678.6165771484375 M 1702.977783203125 678.8165893554688 L 1701.213134765625 678.8165893554688 L 1701.213134765625 676.8244018554688 L 1702.977783203125 676.8244018554688 L 1702.977783203125 678.8165893554688 Z" stroke="none" fill="#fff"/>
    </g>
    <g id="Path_27461" data-name="Path 27461" transform="translate(-1692.665 -622.125)" fill="#fff">
      <path d="M 1702.877807617188 633.142333984375 L 1702.77783203125 633.142333984375 L 1701.4130859375 633.142333984375 L 1701.313110351562 633.142333984375 L 1701.313110351562 633.0423583984375 L 1701.313110351562 631.4502563476562 L 1701.313110351562 631.3502807617188 L 1701.4130859375 631.3502807617188 L 1702.77783203125 631.3502807617188 L 1702.877807617188 631.3502807617188 L 1702.877807617188 631.4502563476562 L 1702.877807617188 633.0423583984375 L 1702.877807617188 633.142333984375 Z" stroke="none"/>
      <path d="M 1702.77783203125 633.0423583984375 L 1702.77783203125 631.4502563476562 L 1701.4130859375 631.4502563476562 L 1701.4130859375 633.0423583984375 L 1702.77783203125 633.0423583984375 M 1702.977783203125 633.2423706054688 L 1701.213134765625 633.2423706054688 L 1701.213134765625 631.250244140625 L 1702.977783203125 631.250244140625 L 1702.977783203125 633.2423706054688 Z" stroke="none" fill="#fff"/>
    </g>
    <g id="Path_27462" data-name="Path 27462" transform="translate(-1729.274 -641.956)" fill="#fff">
      <path d="M 1744.9462890625 655.929443359375 L 1744.846313476562 655.929443359375 L 1743.481323242188 655.929443359375 L 1743.38134765625 655.929443359375 L 1743.38134765625 655.8294677734375 L 1743.38134765625 654.2373046875 L 1743.38134765625 654.1373291015625 L 1743.481323242188 654.1373291015625 L 1744.846313476562 654.1373291015625 L 1744.9462890625 654.1373291015625 L 1744.9462890625 654.2373046875 L 1744.9462890625 655.8294677734375 L 1744.9462890625 655.929443359375 Z" stroke="none"/>
      <path d="M 1744.846313476562 655.8294677734375 L 1744.846313476562 654.2373046875 L 1743.481323242188 654.2373046875 L 1743.481323242188 655.8294677734375 L 1744.846313476562 655.8294677734375 M 1745.046264648438 656.0294799804688 L 1743.281372070312 656.0294799804688 L 1743.281372070312 654.0372924804688 L 1745.046264648438 654.0372924804688 L 1745.046264648438 656.0294799804688 Z" stroke="none" fill="#fff"/>
    </g>
    <g id="Path_27463" data-name="Path 27463" transform="translate(-1710.97 -641.956)" fill="#fff">
      <path d="M 1723.911743164062 655.929443359375 L 1723.811767578125 655.929443359375 L 1722.447265625 655.929443359375 L 1722.347290039062 655.929443359375 L 1722.347290039062 655.8294677734375 L 1722.347290039062 654.2373046875 L 1722.347290039062 654.1373291015625 L 1722.447265625 654.1373291015625 L 1723.811767578125 654.1373291015625 L 1723.911743164062 654.1373291015625 L 1723.911743164062 654.2373046875 L 1723.911743164062 655.8294677734375 L 1723.911743164062 655.929443359375 Z" stroke="none"/>
      <path d="M 1723.811767578125 655.8294677734375 L 1723.811767578125 654.2373046875 L 1722.447265625 654.2373046875 L 1722.447265625 655.8294677734375 L 1723.811767578125 655.8294677734375 M 1724.01171875 656.0294799804688 L 1722.247314453125 656.0294799804688 L 1722.247314453125 654.0372924804688 L 1724.01171875 654.0372924804688 L 1724.01171875 656.0294799804688 Z" stroke="none" fill="#fff"/>
    </g>
    <g id="Path_27464" data-name="Path 27464" transform="translate(-1710.97 -661.786)" fill="#fff">
      <path d="M 1723.911743164062 678.716552734375 L 1723.811767578125 678.716552734375 L 1722.447265625 678.716552734375 L 1722.347290039062 678.716552734375 L 1722.347290039062 678.6165771484375 L 1722.347290039062 677.0244140625 L 1722.347290039062 676.9244384765625 L 1722.447265625 676.9244384765625 L 1723.811767578125 676.9244384765625 L 1723.911743164062 676.9244384765625 L 1723.911743164062 677.0244140625 L 1723.911743164062 678.6165771484375 L 1723.911743164062 678.716552734375 Z" stroke="none"/>
      <path d="M 1723.811767578125 678.6165771484375 L 1723.811767578125 677.0244140625 L 1722.447265625 677.0244140625 L 1722.447265625 678.6165771484375 L 1723.811767578125 678.6165771484375 M 1724.01171875 678.8165893554688 L 1722.247314453125 678.8165893554688 L 1722.247314453125 676.8244018554688 L 1724.01171875 676.8244018554688 L 1724.01171875 678.8165893554688 Z" stroke="none" fill="#fff"/>
    </g>
    <g id="Path_27465" data-name="Path 27465" transform="translate(-1710.97 -622.125)" fill="#fff">
      <path d="M 1723.911743164062 633.142333984375 L 1723.811767578125 633.142333984375 L 1722.447265625 633.142333984375 L 1722.347290039062 633.142333984375 L 1722.347290039062 633.0423583984375 L 1722.347290039062 631.4502563476562 L 1722.347290039062 631.3502807617188 L 1722.447265625 631.3502807617188 L 1723.811767578125 631.3502807617188 L 1723.911743164062 631.3502807617188 L 1723.911743164062 631.4502563476562 L 1723.911743164062 633.0423583984375 L 1723.911743164062 633.142333984375 Z" stroke="none"/>
      <path d="M 1723.811767578125 633.0423583984375 L 1723.811767578125 631.4502563476562 L 1722.447265625 631.4502563476562 L 1722.447265625 633.0423583984375 L 1723.811767578125 633.0423583984375 M 1724.01171875 633.2423706054688 L 1722.247314453125 633.2423706054688 L 1722.247314453125 631.250244140625 L 1724.01171875 631.250244140625 L 1724.01171875 633.2423706054688 Z" stroke="none" fill="#fff"/>
    </g>
    <g id="Path_27466" data-name="Path 27466" transform="translate(-1747.58 -641.956)" fill="#fff">
      <path d="M 1765.980590820312 655.929443359375 L 1765.880615234375 655.929443359375 L 1764.515869140625 655.929443359375 L 1764.415893554688 655.929443359375 L 1764.415893554688 655.8294677734375 L 1764.415893554688 654.2373046875 L 1764.415893554688 654.1373291015625 L 1764.515869140625 654.1373291015625 L 1765.880615234375 654.1373291015625 L 1765.980590820312 654.1373291015625 L 1765.980590820312 654.2373046875 L 1765.980590820312 655.8294677734375 L 1765.980590820312 655.929443359375 Z" stroke="none"/>
      <path d="M 1765.880615234375 655.8294677734375 L 1765.880615234375 654.2373046875 L 1764.515869140625 654.2373046875 L 1764.515869140625 655.8294677734375 L 1765.880615234375 655.8294677734375 M 1766.08056640625 656.0294799804688 L 1764.31591796875 656.0294799804688 L 1764.31591796875 654.0372924804688 L 1766.08056640625 654.0372924804688 L 1766.08056640625 656.0294799804688 Z" stroke="none" fill="#fff"/>
    </g>
    <line id="Line_19" data-name="Line 19" y1="5" x2="4" transform="translate(17.006 2.651)" fill="none" stroke="#fff" stroke-width="1"/>
    <circle id="Ellipse_1132" data-name="Ellipse 1132" cx="1" cy="1" r="1" transform="translate(16.506 2.151)" fill="#fff"/>
    <circle id="Ellipse_1133" data-name="Ellipse 1133" cx="1" cy="1" r="1" transform="translate(19.506 6.151)" fill="#fff"/>
  </g>
</svg>
